<svg width="20" height="20" viewBox="0 0 20 20" fill="none" xmlns="http://www.w3.org/2000/svg">
<path fill-rule="evenodd" clip-rule="evenodd" d="M9.85571 1.69338C9.95259 1.68489 10.05 1.68489 10.1469 1.69338C10.2583 1.70316 10.3646 1.72693 10.449 1.74581L16.6602 3.12611C16.8272 3.1632 16.9932 3.20007 17.1336 3.24226C17.2902 3.28935 17.4685 3.35776 17.6422 3.48288C17.8875 3.65959 18.0801 3.8997 18.1994 4.17749C18.2839 4.37417 18.312 4.56304 18.3239 4.72618C18.3347 4.87235 18.3347 5.04242 18.3346 5.2135V6.19338C18.3347 6.40363 18.3347 6.60846 18.3205 6.78187C18.305 6.97237 18.2682 7.19715 18.153 7.42333C17.9932 7.73694 17.7382 7.99191 17.4246 8.15169C17.1984 8.26694 16.9737 8.30366 16.7832 8.31923C16.7461 8.32226 16.7076 8.32464 16.668 8.32651V13.3402C16.7076 13.3421 16.7461 13.3444 16.7832 13.3475C16.9737 13.363 17.1984 13.3997 17.4246 13.515C17.7382 13.6748 17.9932 13.9298 18.153 14.2434C18.2682 14.4695 18.305 14.6943 18.3205 14.8848C18.3347 15.0582 18.3347 15.2631 18.3346 15.4733V16.1934C18.3347 16.4037 18.3347 16.6085 18.3205 16.7819C18.305 16.9724 18.2682 17.1971 18.153 17.4233C17.9932 17.7369 17.7382 17.9919 17.4246 18.1517C17.1984 18.2669 16.9737 18.3037 16.7832 18.3192C16.6097 18.3334 16.4049 18.3334 16.1946 18.3333H3.80806C3.59774 18.3334 3.39291 18.3334 3.21945 18.3192C3.02895 18.3037 2.80418 18.2669 2.57799 18.1517C2.26439 17.9919 2.00942 17.7369 1.84963 17.4233C1.73438 17.1971 1.69766 16.9724 1.68209 16.7819C1.66792 16.6084 1.66795 16.4036 1.66797 16.1932L1.66797 15.4734C1.66795 15.2631 1.66792 15.0583 1.68209 14.8848C1.69766 14.6943 1.73438 14.4695 1.84963 14.2434C2.00942 13.9298 2.26439 13.6748 2.57799 13.515C2.80418 13.3997 3.02895 13.363 3.21945 13.3475C3.2565 13.3444 3.29498 13.3421 3.33464 13.3402V8.3265C3.29498 8.32463 3.2565 8.32226 3.21945 8.31923C3.02895 8.30366 2.80418 8.26694 2.57799 8.15169C2.26439 7.9919 2.00942 7.73694 1.84963 7.42333C1.73438 7.19715 1.69766 6.97237 1.68209 6.78187C1.66792 6.60841 1.66795 6.40358 1.66797 6.19326L1.66797 5.21349C1.66795 5.04241 1.66793 4.87235 1.67866 4.72618C1.69065 4.56304 1.71876 4.37417 1.80322 4.17748C1.92252 3.8997 2.11512 3.65959 2.36041 3.48288C2.53409 3.35776 2.71237 3.28934 2.86902 3.24226C3.00938 3.20007 3.1754 3.1632 3.34242 3.12611L9.55366 1.74581C9.63801 1.72693 9.74427 1.70316 9.85571 1.69338ZM5.0013 8.33335V13.3333H7.08464V8.33335H5.0013ZM8.7513 8.33335V13.3333H11.2513V8.33335L8.7513 8.33335ZM12.918 8.33335V13.3333H15.0013V8.33335H12.918Z" fill="currentColor"/>
</svg>
