<svg width="20" height="20" viewBox="0 0 20 20" fill="none" xmlns="http://www.w3.org/2000/svg">
<path d="M9.9987 8.75C9.30834 8.75 8.7487 9.30964 8.7487 10C8.7487 10.6904 9.30834 11.25 9.9987 11.25C10.6891 11.25 11.2487 10.6904 11.2487 10C11.2487 9.30964 10.6891 8.75 9.9987 8.75Z" fill="currentColor"/>
<path fill-rule="evenodd" clip-rule="evenodd" d="M14.1654 2.5C12.3629 2.5 10.8001 2.95205 9.44113 3.37018L9.18734 3.44844C7.90356 3.84476 6.86085 4.16667 5.83204 4.16667C5.09384 4.16667 4.43436 4.08819 3.87913 3.98151L3.85293 3.97647C3.44618 3.89831 3.10456 3.83267 2.8391 3.79758C2.6062 3.76679 2.26108 3.7302 1.94547 3.84126C1.78006 3.89947 1.60114 3.98249 1.43199 4.12224C1.26283 4.26199 1.14754 4.42202 1.05917 4.57348C0.896837 4.85168 0.863047 5.167 0.848065 5.3925C0.832015 5.63407 0.832025 5.94132 0.832036 6.29588L0.832034 15.2922C0.831982 15.4565 0.83192 15.6516 0.931153 15.9263C0.980437 16.0628 1.0616 16.1945 1.10846 16.2664C1.15531 16.3383 1.24308 16.4657 1.34804 16.5659C1.4159 16.6306 1.49328 16.6992 1.58594 16.76C1.67681 16.8196 1.75958 16.8559 1.79571 16.8717L1.80228 16.8746C2.4854 17.1759 3.71075 17.5 5.83204 17.5C7.63451 17.5 9.19734 17.0479 10.5563 16.6298L10.8101 16.5516C12.0938 16.1552 13.1366 15.8333 14.1654 15.8333C14.9036 15.8333 15.563 15.9118 16.1183 16.0185L16.1445 16.0235C16.5512 16.1017 16.8928 16.1673 17.1583 16.2024C17.3912 16.2332 17.7363 16.2698 18.0519 16.1587C18.2173 16.1005 18.3963 16.0175 18.5654 15.8778C18.7346 15.738 18.8499 15.578 18.9382 15.4265C19.1006 15.1483 19.1344 14.833 19.1493 14.6075C19.1654 14.3659 19.1654 14.0587 19.1654 13.7041L19.1654 4.70776C19.1654 4.54347 19.1655 4.34839 19.0663 4.07365C19.017 3.9372 18.9358 3.80547 18.8889 3.73359C18.8421 3.6617 18.7543 3.53428 18.6494 3.43412C18.5815 3.36935 18.5041 3.30084 18.4115 3.24003C18.3206 3.1804 18.2378 3.14413 18.2017 3.1283L18.1951 3.12542C17.512 2.82409 16.2866 2.5 14.1654 2.5ZM15.832 7.5C15.832 7.03976 15.4589 6.66667 14.9987 6.66667C14.5385 6.66667 14.1654 7.03976 14.1654 7.5V10.8333C14.1654 11.2936 14.5385 11.6667 14.9987 11.6667C15.4589 11.6667 15.832 11.2936 15.832 10.8333V7.5ZM7.08203 10C7.08203 8.38917 8.38787 7.08333 9.9987 7.08333C11.6095 7.08333 12.9154 8.38917 12.9154 10C12.9154 11.6108 11.6095 12.9167 9.9987 12.9167C8.38787 12.9167 7.08203 11.6108 7.08203 10ZM4.9987 8.33333C5.45893 8.33333 5.83203 8.70643 5.83203 9.16667V12.5C5.83203 12.9602 5.45893 13.3333 4.9987 13.3333C4.53846 13.3333 4.16536 12.9602 4.16536 12.5V9.16667C4.16536 8.70643 4.53846 8.33333 4.9987 8.33333Z" fill="currentColor"/>
</svg>
