<svg width="24" height="24" viewBox="0 0 24 24" fill="none" xmlns="http://www.w3.org/2000/svg">
<path fill-rule="evenodd" clip-rule="evenodd" d="M9.00058 20.9996C9.00058 20.4473 9.44829 19.9996 10.0006 19.9996H14.0005C14.5528 19.9996 15.0005 20.4473 15.0005 20.9996C15.0005 21.5519 14.5528 21.9996 14.0005 21.9996H10.0006C9.44829 21.9996 9.00058 21.5519 9.00058 20.9996Z" fill="currentColor"/>
<path fill-rule="evenodd" clip-rule="evenodd" d="M7.05087 3.0502C8.3636 1.73747 10.144 0.999985 12.0005 0.999985C13.857 0.999985 15.6374 1.73747 16.9502 3.0502C18.2629 4.36293 19.0004 6.14337 19.0004 7.99985C19.0004 10.9125 19.7324 12.8436 20.4997 14.0768L20.5116 14.0959C20.8689 14.6701 21.1513 15.124 21.3417 15.4544C21.4372 15.6199 21.5241 15.7794 21.5885 15.9211C21.6206 15.9919 21.6565 16.0786 21.6846 16.1729C21.7079 16.2512 21.7523 16.4184 21.7357 16.622C21.7245 16.7588 21.6966 16.9925 21.5624 17.234C21.4283 17.4754 21.2446 17.6226 21.1343 17.7044C20.884 17.8901 20.5966 17.9325 20.5007 17.9467L20.4963 17.9473C20.3489 17.9692 20.1816 17.98 20.0128 17.9866C19.6776 17.9997 19.2135 17.9997 18.6362 17.9997H5.3648C4.78759 17.9997 4.32346 17.9997 3.98821 17.9866C3.81946 17.98 3.65218 17.9692 3.50477 17.9473L3.50035 17.9467C3.40442 17.9325 3.117 17.8901 2.86671 17.7044C2.75647 17.6226 2.57275 17.4754 2.4386 17.234C2.30445 16.9925 2.27656 16.7588 2.26537 16.622C2.24872 16.4184 2.29312 16.2512 2.31643 16.1729C2.34452 16.0786 2.38046 15.9919 2.41259 15.9211C2.47695 15.7794 2.56388 15.6199 2.6593 15.4544C2.84972 15.124 3.1322 14.67 3.48951 14.0958L3.50131 14.0768C4.26867 12.8436 5.00066 10.9125 5.00066 7.99985C5.00066 6.14337 5.73814 4.36293 7.05087 3.0502Z" fill="currentColor"/>
</svg>
