<svg width="24" height="24" viewBox="0 0 24 24" fill="none" xmlns="http://www.w3.org/2000/svg">
<path d="M18.8382 2.0003C18.6326 2.0003 18.4267 1.99924 18.2208 1.99818C17.377 1.99382 16.5314 1.98946 15.6911 2.05812C13.8774 2.2063 12.9998 4.07123 12.9998 5.89097V13.9997C12.9998 14.552 12.5521 14.9997 11.9998 14.9997C11.4475 14.9997 10.9998 14.552 10.9998 13.9997V5.89097C10.9998 4.07123 10.1222 2.2063 8.30848 2.05812C7.46815 1.98946 6.62257 1.99382 5.77878 1.99818C5.57284 1.99924 5.367 2.0003 5.16137 2.0003C4.63424 2.00028 4.17948 2.00027 3.80492 2.03087C3.40958 2.06317 3.01637 2.13449 2.638 2.32728C2.07352 2.61489 1.61459 3.07382 1.32698 3.6383C1.13419 4.01667 1.06287 4.40988 1.03057 4.80522C0.999971 5.17976 0.999985 5.63454 1 6.16164V14.8386C0.999985 15.3657 0.999971 15.8205 1.03057 16.1951C1.06287 16.5904 1.13419 16.9836 1.32698 17.362C1.61459 17.9264 2.07352 18.3854 2.638 18.673C3.01637 18.8658 3.40958 18.9371 3.80492 18.9694C4.47391 19.0241 5.15128 19.0152 5.82571 19.0065C6.07598 19.0032 6.32584 19 6.57472 19C7.88924 19 8.33816 19.0102 8.73087 19.1294C9.10824 19.244 9.4593 19.4319 9.76397 19.6823C10.2238 20.0603 10.5611 20.5973 10.8851 21.1133C10.9795 21.2637 11.0729 21.4123 11.1678 21.5546C11.4122 21.9213 11.8678 22.0847 12.2896 21.957C12.5187 21.8876 12.7084 21.7412 12.834 21.5514C12.9281 21.41 13.0207 21.2626 13.1144 21.1134C13.4384 20.5974 13.7758 20.0603 14.2356 19.6823C14.5403 19.4319 14.8913 19.244 15.2687 19.1294C15.6614 19.0102 16.1103 19 17.4249 19C17.6737 19 17.9236 19.0032 18.1739 19.0065C18.8483 19.0152 19.5257 19.0241 20.1947 18.9694C20.59 18.9371 20.9832 18.8658 21.3616 18.673C21.926 18.3854 22.385 17.9264 22.6726 17.362C22.8654 16.9836 22.9367 16.5904 22.969 16.1951C22.9996 15.8205 22.9996 15.3657 22.9996 14.8386V6.16165C22.9996 5.63453 22.9996 5.17977 22.969 4.80522C22.9367 4.40988 22.8654 4.01667 22.6726 3.6383C22.385 3.07382 21.926 2.61489 21.3616 2.32728C20.9832 2.13449 20.59 2.06317 20.1947 2.03087C19.8201 2.00027 19.3653 2.00028 18.8382 2.0003Z" fill="currentColor"/>
</svg>
