<svg width="20" height="20" viewBox="0 0 20 20" fill="none" xmlns="http://www.w3.org/2000/svg">
<path fill-rule="evenodd" clip-rule="evenodd" d="M9.9987 0.833328C4.93609 0.833328 0.832031 4.93738 0.832031 9.99999C0.832031 15.0626 4.93609 19.1667 9.9987 19.1667C15.0613 19.1667 19.1654 15.0626 19.1654 9.99999C19.1654 4.93738 15.0613 0.833328 9.9987 0.833328ZM14.338 8.08925C14.6634 7.76381 14.6634 7.23618 14.338 6.91074C14.0125 6.5853 13.4849 6.5853 13.1594 6.91074L8.7487 11.3215L6.83795 9.41074C6.51252 9.0853 5.98488 9.0853 5.65944 9.41074C5.33401 9.73618 5.33401 10.2638 5.65944 10.5893L8.15944 13.0892C8.48488 13.4147 9.01252 13.4147 9.33795 13.0892L14.338 8.08925Z" fill="currentColor"/>
</svg>
