<svg width="20" height="20" viewBox="0 0 20 20" fill="none" xmlns="http://www.w3.org/2000/svg">
<path d="M7.4987 4.16666C7.23009 4.16666 6.96445 4.17937 6.70235 4.20422C7.8496 2.19085 10.0156 0.833328 12.4987 0.833328C16.1806 0.833328 19.1654 3.8181 19.1654 7.49999C19.1654 9.98307 17.8078 12.1491 15.7945 13.2963C15.8193 13.0342 15.832 12.7686 15.832 12.5C15.832 7.89762 12.1011 4.16666 7.4987 4.16666Z" fill="currentColor"/>
<path fill-rule="evenodd" clip-rule="evenodd" d="M0.832031 12.5C0.832031 9.33307 3.04025 6.68191 6.00094 6.00224C6.48238 5.89172 6.98372 5.83333 7.4987 5.83333C11.1806 5.83333 14.1654 8.8181 14.1654 12.5C14.1654 13.015 14.107 13.5163 13.9965 13.9977C13.3168 16.9584 10.6656 19.1667 7.4987 19.1667C3.8168 19.1667 0.832031 16.1819 0.832031 12.5ZM7.89191 9.26527C8.16288 9.41028 8.33203 9.69267 8.33203 10V13.75H8.7487C9.20893 13.75 9.58203 14.1231 9.58203 14.5833C9.58203 15.0436 9.20893 15.4167 8.7487 15.4167H6.2487C5.78846 15.4167 5.41536 15.0436 5.41536 14.5833C5.41536 14.1231 5.78846 13.75 6.2487 13.75H6.66536V11.5551C6.28789 11.7735 5.80062 11.6635 5.55532 11.2956C5.30003 10.9126 5.40351 10.3952 5.78645 10.14L7.03645 9.30662C7.29216 9.13614 7.62095 9.12025 7.89191 9.26527Z" fill="currentColor"/>
</svg>
