<svg width="24" height="24" viewBox="0 0 24 24" fill="none" xmlns="http://www.w3.org/2000/svg">
<path d="M12.6484 1.20097C13.142 1.2244 13.5758 1.65856 13.5996 2.15214C13.6007 2.17595 13.6006 2.18941 13.6006 2.21562V6.63163C13.6006 6.88401 13.6012 7.13051 13.6182 7.33866C13.6369 7.56717 13.6811 7.83692 13.8193 8.10819C14.0111 8.48439 14.3171 8.79052 14.6934 8.98222C14.9647 9.12037 15.2344 9.16472 15.4629 9.18339C15.671 9.20038 15.9167 9.20002 16.1689 9.19999H20.585C20.6112 9.19999 20.6247 9.19984 20.6484 9.20097C21.1423 9.22453 21.5763 9.65929 21.5996 10.1531C21.6007 10.1767 21.6006 10.1845 21.6006 10.2V17.4412C21.6006 18.2461 21.6009 18.9108 21.5566 19.4519C21.5107 20.0138 21.4122 20.5303 21.165 21.0154C20.7816 21.768 20.1695 22.38 19.417 22.7635C18.9317 23.0108 18.4146 23.1101 17.8525 23.156C17.3114 23.2002 16.6466 23.2 15.8418 23.2H9.35938C8.55478 23.2 7.89064 23.2002 7.34961 23.156C6.78752 23.1101 6.27048 23.0108 5.78516 22.7635C5.03259 22.38 4.42057 21.768 4.03711 21.0154C3.78998 20.5303 3.69143 20.0138 3.64551 19.4519C3.60129 18.9108 3.60155 18.2461 3.60156 17.4412V6.95878C3.60155 6.15384 3.60129 5.48922 3.64551 4.94804C3.69143 4.38618 3.78998 3.86972 4.03711 3.38456C4.42057 2.63198 5.0326 2.02001 5.78516 1.63651C6.27048 1.38923 6.78752 1.28986 7.34961 1.24394C7.89064 1.19976 8.55478 1.19998 9.35938 1.19999H12.6006C12.6162 1.19998 12.6246 1.19984 12.6484 1.20097ZM8.60156 17.2C8.04929 17.2 7.60156 17.6477 7.60156 18.2C7.60163 18.7522 8.04933 19.2 8.60156 19.2H16.6006C17.1528 19.2 17.6005 18.7522 17.6006 18.2C17.6006 17.6477 17.1529 17.2 16.6006 17.2H8.60156ZM8.60156 13.2C8.04929 13.2 7.60156 13.6477 7.60156 14.2C7.60159 14.7522 8.0493 15.2 8.60156 15.2H16.6006C17.1528 15.2 17.6006 14.7522 17.6006 14.2C17.6006 13.6477 17.1529 13.2 16.6006 13.2H8.60156ZM8.60156 9.19999C8.0493 9.19999 7.60158 9.64773 7.60156 10.2C7.60156 10.7523 8.04929 11.2 8.60156 11.2H10.6006C11.1529 11.2 11.6006 10.7523 11.6006 10.2C11.6006 9.64773 11.1528 9.19999 10.6006 9.19999H8.60156ZM16.2178 2.50663C16.3549 2.53959 16.4504 2.63554 16.6416 2.82694L19.9746 6.15898C20.1658 6.34994 20.2609 6.44594 20.2939 6.5828C20.3405 6.77651 20.2392 7.02263 20.0693 7.12675C19.9491 7.20029 19.8021 7.19999 19.5088 7.19999H16.4014C16.1213 7.19999 15.981 7.1998 15.874 7.1453C15.78 7.09737 15.7032 7.02062 15.6553 6.92655C15.601 6.81967 15.6006 6.67972 15.6006 6.40019V3.29179C15.6006 2.99844 15.6011 2.85145 15.6748 2.73124C15.779 2.56157 16.0242 2.46012 16.2178 2.50663Z" fill="currentColor"/>
</svg>
