<svg width="24" height="24" viewBox="0 0 24 24" fill="none" xmlns="http://www.w3.org/2000/svg">
<path d="M12.1824 20.9991C14.6619 20.9991 16.7435 20.1991 18.2639 18.8192L15.366 16.6192C14.5905 17.1492 13.5497 17.5192 12.1824 17.5192C9.75394 17.5192 7.69278 15.9492 6.95803 13.7793L6.85033 13.7883L4.01559 15.9382L3.97852 16.0392C5.48867 18.9791 8.59065 20.9991 12.1824 20.9991Z" fill="#34A853"/>
<path d="M20.9997 12.1993C20.9997 11.4593 20.9385 10.9194 20.8059 10.3594H12.1836V13.6993H17.2447C17.1427 14.5293 16.5917 15.7793 15.3672 16.6192L15.35 16.731L18.0762 18.8007L18.2651 18.8192C19.9997 17.2492 20.9997 14.9392 20.9997 12.1993Z" fill="#4285F4"/>
<path d="M6.95906 13.7797C6.76519 13.2197 6.65299 12.6197 6.65299 11.9997C6.65299 11.3797 6.76519 10.7798 6.94886 10.2198L6.94372 10.1005L4.07346 7.91602L3.97955 7.95979C3.35714 9.17978 3 10.5498 3 11.9997C3 13.4497 3.35714 14.8196 3.97955 16.0396L6.95906 13.7797Z" fill="#FBBC05"/>
<path d="M12.1824 6.4799C13.9069 6.4799 15.0701 7.20988 15.7334 7.81991L18.3251 5.33995C16.7334 3.88998 14.6619 3 12.1824 3C8.59065 3 5.48867 5.01994 3.97852 7.95986L6.94783 10.2198C7.69278 8.04989 9.75394 6.4799 12.1824 6.4799Z" fill="#EB4335"/>
</svg>
