<svg width="20" height="20" viewBox="0 0 20 20" fill="none" xmlns="http://www.w3.org/2000/svg">
<path fill-rule="evenodd" clip-rule="evenodd" d="M9.56584 1.11365C9.85109 1.03642 10.1517 1.03642 10.437 1.11365C10.7681 1.20331 11.0469 1.42219 11.2694 1.59688C13.1889 3.10387 15.1204 4.59561 17.0483 6.09178C17.3622 6.33535 17.6387 6.54994 17.8447 6.82853C18.0255 7.07301 18.1602 7.34844 18.2422 7.64127C18.3356 7.97495 18.3352 8.32496 18.3348 8.72225C18.3326 10.77 18.3348 12.8177 18.3348 14.8655C18.3348 15.3048 18.3348 15.6837 18.3093 15.9959C18.2824 16.3253 18.2229 16.653 18.0623 16.9683C17.8226 17.4387 17.4401 17.8212 16.9697 18.0609C16.6544 18.2215 16.3267 18.2809 15.9973 18.3079C15.3293 18.3624 14.6519 18.333 13.9821 18.3333C13.8829 18.3334 13.7643 18.3334 13.6599 18.3249C13.5389 18.315 13.3656 18.2896 13.1839 18.1971C12.9487 18.0773 12.7575 17.886 12.6377 17.6508C12.5451 17.4692 12.5197 17.2959 12.5099 17.1749C12.5013 17.0704 12.5014 16.9519 12.5014 16.8526L12.508 12.1891C12.5086 11.7218 12.509 11.4881 12.4182 11.3096C12.3384 11.1526 12.2109 11.0249 12.054 10.9449C11.8756 10.8539 11.642 10.8539 11.1746 10.8539H8.84143C8.37532 10.8539 8.14227 10.8539 7.96414 10.9445C7.80745 11.0243 7.68 11.1516 7.60002 11.3081C7.5091 11.4861 7.50877 11.7192 7.5081 12.1853L7.50142 16.8526C7.50146 16.9519 7.50151 17.0704 7.49297 17.1749C7.48309 17.2959 7.45772 17.4692 7.36518 17.6508C7.24533 17.886 7.05411 18.0773 6.81891 18.1971C6.63728 18.2896 6.46396 18.315 6.34294 18.3249C6.23851 18.3334 6.11997 18.3334 6.02071 18.3333C5.35097 18.333 4.67349 18.3624 4.00556 18.3079C3.67611 18.2809 3.34843 18.2215 3.03311 18.0609C2.5627 17.8212 2.18025 17.4387 1.94057 16.9683C1.77991 16.653 1.72048 16.3253 1.69356 15.9959C1.66806 15.6837 1.66807 15.3048 1.66808 14.8655C1.66808 12.8177 1.67024 10.77 1.66803 8.72224C1.6676 8.32496 1.66722 7.97495 1.76062 7.64127C1.84259 7.34844 1.97729 7.07301 2.15812 6.82853C2.36417 6.54994 2.64068 6.33536 2.95454 6.09179C4.8824 4.59568 6.814 3.10384 8.7334 1.59688C8.95591 1.42219 9.2347 1.20331 9.56584 1.11365Z" fill="currentColor"/>
</svg>
