<svg width="20" height="20" viewBox="0 0 20 20" fill="none" xmlns="http://www.w3.org/2000/svg">
<path fill-rule="evenodd" clip-rule="evenodd" d="M9.9987 0.833328C4.93609 0.833328 0.832031 4.93738 0.832031 9.99999C0.832031 15.0626 4.93609 19.1667 9.9987 19.1667C15.0613 19.1667 19.1654 15.0626 19.1654 9.99999C19.1654 4.93738 15.0613 0.833328 9.9987 0.833328ZM9.9987 5.83333C9.53846 5.83333 9.16536 6.20642 9.16536 6.66666C9.16536 7.1269 9.53846 7.49999 9.9987 7.49999H10.007C10.4673 7.49999 10.8404 7.1269 10.8404 6.66666C10.8404 6.20642 10.4673 5.83333 10.007 5.83333H9.9987ZM10.832 9.99999C10.832 9.53976 10.4589 9.16666 9.9987 9.16666C9.53846 9.16666 9.16536 9.53976 9.16536 9.99999V13.3333C9.16536 13.7936 9.53846 14.1667 9.9987 14.1667C10.4589 14.1667 10.832 13.7936 10.832 13.3333V9.99999Z" fill="currentColor"/>
</svg>
