<svg width="20" height="20" viewBox="0 0 20 20" fill="none" xmlns="http://www.w3.org/2000/svg">
<path d="M11.6613 1.77007C11.7071 1.40299 11.5055 1.0496 11.1662 0.90229C10.8268 0.754983 10.431 0.849026 10.1942 1.13322L2.75295 10.0627C2.62436 10.2169 2.49411 10.3732 2.39927 10.5105C2.30958 10.6403 2.14583 10.8956 2.14077 11.2312C2.13497 11.6153 2.30615 11.9808 2.60496 12.2223C2.86598 12.4332 3.16695 12.4708 3.32412 12.4851C3.49031 12.5001 3.69371 12.5001 3.89454 12.5L9.05704 12.5L8.34079 18.23C8.29491 18.5971 8.49652 18.9505 8.83586 19.0978C9.17521 19.2451 9.57105 19.1511 9.80788 18.8669L17.2491 9.93741C17.3777 9.78315 17.5079 9.6269 17.6028 9.4896C17.6925 9.35975 17.8562 9.10443 17.8613 8.76889C17.8671 8.38475 17.6959 8.01928 17.3971 7.77781C17.1361 7.56688 16.8351 7.52924 16.6779 7.51501C16.5117 7.49996 16.3083 7.5 16.1075 7.50004L10.945 7.50004L11.6613 1.77007Z" fill="currentColor"/>
</svg>
