<svg width="24" height="24" viewBox="0 0 24 24" fill="none" xmlns="http://www.w3.org/2000/svg">
<path d="M2.13349 8.18128C1.83357 7.96704 1.68361 7.85992 1.55287 7.84602C1.35735 7.82522 1.16139 7.92606 1.06467 8.09725C0.999992 8.21173 0.999995 8.39399 1 8.75851V15.241C0.999988 16.0459 0.999978 16.7103 1.04419 17.2515C1.09012 17.8136 1.18868 18.3303 1.43597 18.8156C1.81945 19.5682 2.43136 20.1801 3.184 20.5636C3.66932 20.8109 4.18602 20.9095 4.7481 20.9554C5.28928 20.9996 5.95362 20.9996 6.75856 20.9996H17.241C18.0459 20.9996 18.7103 20.9996 19.2515 20.9554C19.8136 20.9095 20.3302 20.8109 20.8156 20.5636C21.5682 20.1801 22.1801 19.5682 22.5636 18.8156C22.8109 18.3303 22.9095 17.8136 22.9554 17.2515C22.9996 16.7103 22.9996 16.046 22.9996 15.241V8.7585C22.9996 8.57984 22.9996 8.49051 22.9832 8.42812C22.9092 8.14611 22.6026 7.98546 22.3286 8.08515C22.268 8.1072 22.1936 8.1587 22.0449 8.26168L14.3029 13.6217C13.754 14.0029 13.272 14.3376 12.7245 14.4703C12.2456 14.5864 11.7454 14.5827 11.2683 14.4596C10.7227 14.3189 10.2457 13.9771 9.70248 13.5878L2.13349 8.18128Z" fill="currentColor"/>
<path d="M22.1324 5.76861C22.317 5.64081 22.4093 5.57691 22.466 5.47413C22.51 5.39432 22.5352 5.26794 22.5251 5.17735C22.5121 5.06069 22.4625 4.98367 22.3634 4.82963C21.9835 4.23956 21.4369 3.75248 20.8156 3.43591C20.3302 3.18862 19.8136 3.09006 19.2515 3.04413C18.7103 2.99992 18.0459 2.99993 17.241 2.99994H6.75859C5.95364 2.99993 5.28928 2.99992 4.7481 3.04413C4.18602 3.09006 3.66932 3.18862 3.184 3.43591C2.62497 3.72074 2.14178 4.13252 1.77435 4.63326C1.65875 4.79079 1.60095 4.86956 1.58191 4.98911C1.56702 5.08259 1.58781 5.21247 1.63115 5.29663C1.68656 5.40426 1.78268 5.47291 1.97491 5.61022L10.7498 11.878C11.477 12.3975 11.6314 12.4878 11.7679 12.5231C11.927 12.5641 12.0937 12.5653 12.2533 12.5266C12.3904 12.4934 12.546 12.4053 13.2808 11.8966L22.1324 5.76861Z" fill="currentColor"/>
</svg>
