<svg width="20" height="20" viewBox="0 0 20 20" fill="none" xmlns="http://www.w3.org/2000/svg">
<path d="M12.6925 2.2647C14.4216 1.31372 16.3652 0.820915 18.3385 0.833154C18.7967 0.835996 19.1666 1.20825 19.1666 1.66647C19.1666 4.00839 18.5097 8.08956 14.2896 11.1803C14.3607 11.4783 14.4414 11.8705 14.4973 12.3039C14.5582 12.7767 14.5925 13.321 14.5427 13.8566C14.4936 14.3849 14.3572 14.9664 14.0267 15.4623L14.0259 15.4634C13.4601 16.3091 12.3931 16.7995 11.6477 17.0699C11.2471 17.2151 10.877 17.3182 10.6077 17.385C10.4048 17.4353 10.2558 17.4659 10.1883 17.4791C9.93147 17.5279 9.66979 17.4766 9.46591 17.3064C9.27625 17.1481 9.16662 16.9137 9.16662 16.6667V12.845L7.15499 10.8334H3.33329C3.08623 10.8334 2.8519 10.7237 2.69357 10.5341C2.53524 10.3444 2.46923 10.0943 2.51335 9.85119C2.54146 9.6971 2.57727 9.54421 2.61496 9.39224C2.68175 9.12295 2.78481 8.75288 2.93011 8.35232C3.20049 7.60692 3.69084 6.53983 4.5366 5.97405L4.53771 5.97331C5.03353 5.64276 5.61502 5.50635 6.14341 5.45724C6.67898 5.40747 7.22325 5.44176 7.69606 5.50269C8.13399 5.55913 8.52986 5.64102 8.82895 5.71257C9.838 4.28842 11.1581 3.10861 12.6925 2.2647Z" fill="currentColor"/>
<path fill-rule="evenodd" clip-rule="evenodd" d="M5.00258 12.4903C4.34995 12.4701 3.71285 12.6916 3.21346 13.1122C2.77448 13.4811 2.45216 13.9894 2.21342 14.4781C1.96993 14.9766 1.7849 15.5146 1.64668 15.9978C1.50771 16.4836 1.41112 16.9318 1.34923 17.2577C1.31818 17.4212 1.29559 17.5555 1.28059 17.6501C1.27245 17.7015 1.26482 17.7529 1.25755 17.8044L1.25736 17.8058C1.22295 18.0632 1.31044 18.3222 1.49404 18.5058C1.67765 18.6894 1.93706 18.7768 2.19443 18.7424C2.24627 18.7351 2.29804 18.7274 2.34974 18.7192C2.44435 18.7042 2.57859 18.6817 2.74214 18.6506C3.06808 18.5887 3.5162 18.4921 4.00206 18.3532C4.48526 18.2149 5.02321 18.0299 5.5217 17.7864C6.01029 17.5478 6.51835 17.2256 6.88724 16.7868C7.7381 15.7792 7.7508 14.2097 6.76046 13.2319L6.75034 13.222C6.27784 12.7711 5.65544 12.5105 5.00258 12.4903Z" fill="currentColor"/>
</svg>
