<svg width="24" height="24" viewBox="0 0 24 24" fill="none" xmlns="http://www.w3.org/2000/svg">
<path fill-rule="evenodd" clip-rule="evenodd" d="M19.2856 15.9603C19.2268 15.6359 19.2665 15.3013 19.3996 14.9997C19.5264 14.7039 19.7369 14.4517 20.0052 14.274C20.2734 14.0964 20.5878 14.001 20.9096 13.9997H20.9996C21.53 13.9997 22.0387 13.789 22.4138 13.414C22.7889 13.0389 22.9996 12.5302 22.9996 11.9998C22.9996 11.4693 22.7889 10.9606 22.4138 10.5856C22.0387 10.2105 21.53 9.99981 20.9996 9.99981H20.8296C20.5078 9.99852 20.1934 9.90318 19.9252 9.72551C19.6569 9.54783 19.4464 9.29559 19.3196 8.99983V8.91983C19.1865 8.61822 19.1468 8.28365 19.2056 7.95926C19.2645 7.63487 19.4191 7.33554 19.6496 7.09987L19.7096 7.03987C19.8956 6.85412 20.0431 6.63355 20.1437 6.39076C20.2444 6.14797 20.2962 5.88772 20.2962 5.62489C20.2962 5.36207 20.2444 5.10182 20.1437 4.85903C20.0431 4.61624 19.8956 4.39566 19.7096 4.20992C19.5239 4.02397 19.3033 3.87646 19.0605 3.77581C18.8177 3.67516 18.5575 3.62336 18.2947 3.62336C18.0318 3.62336 17.7716 3.67516 17.5288 3.77581C17.286 3.87646 17.0654 4.02397 16.8797 4.20992L16.8197 4.26992C16.584 4.50045 16.2847 4.6551 15.9603 4.71392C15.6359 4.77273 15.3013 4.73303 14.9997 4.59991C14.704 4.47315 14.4517 4.26268 14.274 3.99439C14.0964 3.72611 14.001 3.41172 13.9997 3.08994V2.99995C13.9997 2.46952 13.789 1.96083 13.414 1.58576C13.0389 1.21069 12.5302 0.999985 11.9998 0.999985C11.4694 0.999985 10.9607 1.21069 10.5856 1.58576C10.2105 1.96083 9.99982 2.46952 9.99982 2.99995V3.16994C9.99854 3.49172 9.90319 3.8061 9.72552 4.07439C9.54785 4.34267 9.29561 4.55315 8.99984 4.67991H8.91984C8.61823 4.81303 8.28366 4.85273 7.95927 4.79391C7.63489 4.7351 7.33555 4.58045 7.09988 4.34992L7.03988 4.28992C6.85414 4.10397 6.63357 3.95646 6.39077 3.85581C6.14798 3.75516 5.88773 3.70336 5.62491 3.70336C5.36208 3.70336 5.10183 3.75516 4.85904 3.85581C4.61625 3.95646 4.39568 4.10397 4.20994 4.28992C4.02399 4.47566 3.87647 4.69624 3.77583 4.93903C3.67518 5.18182 3.62338 5.44207 3.62338 5.70489C3.62338 5.96772 3.67518 6.22797 3.77583 6.47076C3.87647 6.71355 4.02399 6.93412 4.20994 7.11986L4.26994 7.17986C4.50047 7.41554 4.65511 7.71487 4.71393 8.03926C4.77275 8.36365 4.73304 8.69822 4.59993 8.99983C4.48565 9.31056 4.28053 9.57972 4.01124 9.77232C3.74195 9.96493 3.42095 10.0721 3.08996 10.0798H2.99996C2.46954 10.0798 1.96084 10.2905 1.58577 10.6656C1.21071 11.0406 1 11.5493 1 12.0798C1 12.6102 1.21071 13.1189 1.58577 13.494C1.96084 13.869 2.46954 14.0797 2.99996 14.0797H3.16996C3.49174 14.081 3.80612 14.1764 4.0744 14.354C4.34269 14.5317 4.55317 14.7839 4.67993 15.0797C4.81304 15.3813 4.85275 15.7159 4.79393 16.0403C4.73511 16.3647 4.58047 16.664 4.34993 16.8997L4.28994 16.9597C4.10399 17.1454 3.95647 17.366 3.85582 17.6088C3.75518 17.8516 3.70337 18.1118 3.70337 18.3746C3.70337 18.6375 3.75518 18.8977 3.85582 19.1405C3.95647 19.3833 4.10399 19.6039 4.28994 19.7896C4.47568 19.9756 4.69625 20.1231 4.93904 20.2237C5.18183 20.3244 5.44208 20.3762 5.70491 20.3762C5.96773 20.3762 6.22798 20.3244 6.47077 20.2237C6.71356 20.1231 6.93414 19.9756 7.11988 19.7896L7.17988 19.7296C7.41555 19.4991 7.71488 19.3444 8.03927 19.2856C8.36366 19.2268 8.69823 19.2665 8.99984 19.3996C9.31057 19.5139 9.57973 19.719 9.77234 19.9883C9.96494 20.2576 10.0721 20.5786 10.0798 20.9096V20.9996C10.0798 21.53 10.2905 22.0387 10.6656 22.4138C11.0407 22.7888 11.5494 22.9996 12.0798 22.9996C12.6102 22.9996 13.1189 22.7888 13.494 22.4138C13.869 22.0387 14.0797 21.53 14.0797 20.9996V20.8296C14.081 20.5078 14.1764 20.1934 14.354 19.9251C14.5317 19.6569 14.784 19.4464 15.0797 19.3196C15.3813 19.1865 15.7159 19.1468 16.0403 19.2056C16.3647 19.2644 16.664 19.4191 16.8997 19.6496L16.9597 19.7096C17.1454 19.8956 17.366 20.0431 17.6088 20.1437C17.8516 20.2444 18.1118 20.2962 18.3747 20.2962C18.6375 20.2962 18.8977 20.2444 19.1405 20.1437C19.3833 20.0431 19.6039 19.8956 19.7896 19.7096C19.9756 19.5239 20.1231 19.3033 20.2237 19.0605C20.3244 18.8177 20.3762 18.5575 20.3762 18.2946C20.3762 18.0318 20.3244 17.7716 20.2237 17.5288C20.1231 17.286 19.9756 17.0654 19.7896 16.8797L19.7296 16.8197C19.4991 16.584 19.3445 16.2847 19.2856 15.9603ZM14.9997 11.9998C14.9997 13.6566 13.6566 14.9997 11.9998 14.9997C10.343 14.9997 8.99984 13.6566 8.99984 11.9998C8.99984 10.3429 10.343 8.99983 11.9998 8.99983C13.6566 8.99983 14.9997 10.3429 14.9997 11.9998Z" fill="currentColor"/>
</svg>
