<svg width="24" height="24" viewBox="0 0 24 24" fill="none" xmlns="http://www.w3.org/2000/svg">
<path d="M12.6456 1.77493C12.2372 1.58023 11.7628 1.58023 11.3545 1.77493C11.0014 1.94325 10.8068 2.23548 10.7087 2.39581C10.6072 2.56154 10.503 2.77267 10.4015 2.97846L8.24576 7.34575L3.42371 8.05056C3.19672 8.08369 2.96381 8.11768 2.7749 8.16311C2.59214 8.20706 2.25423 8.30211 1.98531 8.58595C1.67422 8.91432 1.52792 9.36553 1.58714 9.81397C1.63833 10.2016 1.85618 10.4768 1.97838 10.6197C2.10469 10.7673 2.27334 10.9315 2.43771 11.0915L5.9255 14.4886L5.10254 19.2869C5.06369 19.5132 5.02383 19.7453 5.00849 19.939C4.99365 20.1264 4.97931 20.4773 5.16601 20.8211C5.38196 21.2187 5.76584 21.4975 6.21071 21.58C6.59531 21.6513 6.9246 21.5292 7.09823 21.4571C7.27778 21.3826 7.4862 21.273 7.68936 21.1661L12 18.8991L16.3107 21.1661C16.5139 21.273 16.7223 21.3826 16.9018 21.4571C17.0755 21.5292 17.4047 21.6513 17.7893 21.58C18.2342 21.4975 18.6181 21.2187 18.834 20.8211C19.0207 20.4773 19.0064 20.1264 18.9916 19.939C18.9762 19.7453 18.9364 19.5132 18.8975 19.287L18.0745 14.4886L21.5624 11.0915C21.7267 10.9315 21.8954 10.7673 22.0217 10.6197C22.1439 10.4768 22.3617 10.2016 22.4129 9.81397C22.4721 9.36553 22.3258 8.91432 22.0147 8.58595C21.7458 8.30211 21.4079 8.20706 21.2252 8.16311C21.0362 8.11768 20.8033 8.08369 20.5763 8.05055L15.7543 7.34575L13.5986 2.97854C13.4971 2.77273 13.3929 2.56156 13.2914 2.39581C13.1932 2.23548 12.9986 1.94325 12.6456 1.77493Z" fill="black"/>
</svg>
