<svg width="24" height="24" viewBox="0 0 24 24" fill="none" xmlns="http://www.w3.org/2000/svg">
<path d="M11.1877 22.3314C11.705 22.5614 12.2956 22.5614 12.8129 22.3314C13.2124 22.1537 13.4719 21.8408 13.6525 21.5858C13.8301 21.3352 14.0202 21.0067 14.2293 20.6455L22.4964 6.36591C22.7063 6.0034 22.8971 5.67397 23.0264 5.39439C23.1579 5.11026 23.3005 4.72831 23.255 4.29238C23.1962 3.72828 22.9007 3.21568 22.442 2.88216C22.0875 2.62441 21.6855 2.55645 21.3737 2.52785C21.067 2.49971 20.6863 2.49974 20.2674 2.49977L3.73315 2.49977C3.31426 2.49974 2.93357 2.49971 2.62682 2.52785C2.31506 2.55645 1.91306 2.62441 1.55857 2.88216C1.09985 3.21569 0.804312 3.72829 0.745501 4.29238C0.700055 4.72831 0.842658 5.11026 0.974106 5.39439C1.10346 5.67398 1.29422 6.00343 1.50414 6.36596L9.77128 20.6456C9.98035 21.0067 10.1705 21.3352 10.348 21.5858C10.5286 21.8408 10.7881 22.1537 11.1877 22.3314Z" fill="currentColor"/>
</svg>
