<svg width="24" height="24" viewBox="0 0 24 24" fill="none" xmlns="http://www.w3.org/2000/svg">
<path d="M12.8123 1.66861C12.295 1.43859 11.7044 1.43859 11.1871 1.66861C10.7876 1.84627 10.5281 2.15918 10.3475 2.41416C10.1699 2.66485 9.9798 2.99327 9.77072 3.35446L1.50357 17.6341C1.29366 17.9966 1.1029 18.326 0.973562 18.6056C0.842112 18.8897 0.699508 19.2717 0.744957 19.7076C0.803767 20.2717 1.09931 20.7843 1.55802 21.1178C1.91252 21.3756 2.31451 21.4435 2.62627 21.4721C2.93302 21.5003 3.31368 21.5003 3.73257 21.5002H20.2669C20.6857 21.5003 21.0664 21.5003 21.3732 21.4721C21.6849 21.4435 22.0869 21.3756 22.4414 21.1178C22.9001 20.7843 23.1957 20.2717 23.2545 19.7076C23.2999 19.2717 23.1573 18.8897 23.0259 18.6056C22.8965 18.326 22.7058 17.9966 22.4959 17.634L14.2287 3.35444C14.0196 2.99325 13.8295 2.66484 13.652 2.41416C13.4714 2.15918 13.2119 1.84627 12.8123 1.66861Z" fill="currentColor"/>
</svg>
