<svg width="24" height="24" viewBox="0 0 24 24" fill="none" xmlns="http://www.w3.org/2000/svg">
<path fill-rule="evenodd" clip-rule="evenodd" d="M3.41993 18.3027C5.39286 15.6917 8.50057 13.9997 12.0016 13.9997C15.5027 13.9997 18.6104 15.6917 20.5833 18.3027C20.5922 18.3145 20.6012 18.3264 20.6102 18.3383C20.7798 18.5626 20.9617 18.8032 21.0917 19.0352C21.249 19.3161 21.3656 19.641 21.3584 20.0362C21.3526 20.3538 21.2563 20.6512 21.1395 20.886C21.0226 21.1208 20.8434 21.3768 20.5934 21.573C20.2601 21.8345 19.8972 21.9271 19.5748 21.9658C19.292 21.9997 18.9568 21.9996 18.6198 21.9996C18.6046 21.9996 18.5894 21.9996 18.5743 21.9996H5.42898C5.4138 21.9996 5.39861 21.9996 5.38342 21.9996C5.04643 21.9996 4.71125 21.9997 4.42841 21.9658C4.10603 21.9271 3.74313 21.8345 3.40981 21.573C3.15987 21.3768 2.98065 21.1208 2.86378 20.886C2.7469 20.6512 2.65066 20.3538 2.64485 20.0362C2.63762 19.641 2.75423 19.3161 2.91156 19.0352C3.04154 18.8032 3.22344 18.5626 3.39307 18.3383C3.40206 18.3264 3.41102 18.3145 3.41993 18.3027Z" fill="currentColor"/>
<path fill-rule="evenodd" clip-rule="evenodd" d="M6.50173 7.49985C6.50173 4.46234 8.96412 1.99995 12.0016 1.99995C15.0391 1.99995 17.5015 4.46234 17.5015 7.49985C17.5015 10.5374 15.0391 12.9997 12.0016 12.9997C8.96412 12.9997 6.50173 10.5374 6.50173 7.49985Z" fill="currentColor"/>
</svg>
