<svg width="20" height="20" viewBox="0 0 20 20" fill="none" xmlns="http://www.w3.org/2000/svg">
<path fill-rule="evenodd" clip-rule="evenodd" d="M9.85571 1.69337C9.95259 1.68487 10.05 1.68487 10.1469 1.69337C10.2583 1.70314 10.3646 1.72692 10.449 1.7458C10.4566 1.7475 10.4641 1.74917 10.4713 1.75079L16.6602 3.12609C16.8272 3.16319 16.9932 3.20006 17.1336 3.24225C17.2902 3.28933 17.4685 3.35774 17.6422 3.48286C17.8875 3.65958 18.0801 3.89969 18.1994 4.17747C18.2839 4.37415 18.312 4.56303 18.3239 4.72616C18.3347 4.87233 18.3347 5.0424 18.3346 5.21348V6.19326C18.3347 6.40358 18.3347 6.6084 18.3205 6.78186C18.305 6.97235 18.2682 7.19713 18.153 7.42332C17.9932 7.73692 17.7382 7.99189 17.4246 8.15168C17.1984 8.26693 16.9737 8.30365 16.7832 8.31921C16.7461 8.32224 16.7076 8.32462 16.668 8.32649V13.3402C16.7076 13.342 16.7461 13.3444 16.7832 13.3475C16.9737 13.363 17.1984 13.3997 17.4246 13.515C17.7382 13.6748 17.9932 13.9297 18.153 14.2434C18.2682 14.4695 18.305 14.6943 18.3205 14.8848C18.3347 15.0583 18.3347 15.2631 18.3346 15.4734V16.1933C18.3347 16.4036 18.3347 16.6084 18.3205 16.7819C18.305 16.9724 18.2682 17.1971 18.153 17.4233C17.9932 17.7369 17.7382 17.9919 17.4246 18.1517C17.1984 18.2669 16.9737 18.3037 16.7832 18.3192C16.6097 18.3334 16.4049 18.3334 16.1946 18.3333H3.80804C3.59773 18.3334 3.39291 18.3334 3.21945 18.3192C3.02895 18.3037 2.80418 18.2669 2.57799 18.1517C2.26439 17.9919 2.00942 17.7369 1.84963 17.4233C1.73438 17.1971 1.69766 16.9724 1.68209 16.7819C1.66792 16.6084 1.66795 16.4036 1.66797 16.1932L1.66797 15.4734C1.66795 15.2631 1.66792 15.0583 1.68209 14.8848C1.69766 14.6943 1.73438 14.4695 1.84963 14.2434C2.00942 13.9297 2.26439 13.6748 2.57799 13.515C2.80418 13.3997 3.02895 13.363 3.21945 13.3475C3.2565 13.3444 3.29498 13.342 3.33464 13.3402V8.32649C3.29498 8.32462 3.2565 8.32224 3.21945 8.31921C3.02895 8.30365 2.80418 8.26693 2.57799 8.15168C2.26439 7.99189 2.00942 7.73692 1.84963 7.42332C1.73438 7.19713 1.69766 6.97235 1.68209 6.78186C1.66792 6.60839 1.66795 6.40357 1.66797 6.19325C1.66797 6.1844 1.66797 6.17554 1.66797 6.16667L1.66797 5.23623C1.66797 5.22865 1.66797 5.22106 1.66797 5.21348C1.66795 5.0424 1.66793 4.87233 1.67866 4.72616C1.69065 4.56303 1.71876 4.37415 1.80322 4.17747C1.92252 3.89968 2.11512 3.65958 2.36041 3.48286C2.53409 3.35774 2.71237 3.28933 2.86902 3.24224C3.00938 3.20006 3.17541 3.16318 3.34242 3.12609C3.34982 3.12445 3.35722 3.1228 3.36462 3.12116L9.53129 1.75079C9.53856 1.74917 9.54601 1.7475 9.55365 1.7458C9.63801 1.72692 9.74427 1.70314 9.85571 1.69337ZM5.00131 8.33333V13.3333H7.08464V8.33333H5.00131ZM3.83464 6.66667C3.58753 6.66667 3.45232 6.66602 3.35517 6.65808C3.3513 6.65777 3.34764 6.65745 3.34418 6.65713C3.34386 6.65367 3.34354 6.65001 3.34323 6.64614C3.33529 6.54899 3.33464 6.41377 3.33464 6.16667V5.23623C3.33464 5.0333 3.33516 4.92578 3.34085 4.84824C3.34105 4.84557 3.34125 4.84302 3.34145 4.8406C3.34376 4.83989 3.34621 4.83914 3.34878 4.83837C3.42323 4.81599 3.52808 4.79216 3.72617 4.74814L9.89284 3.37777C9.95078 3.36489 9.97913 3.35866 9.99988 3.35461C10.0004 3.35451 10.0008 3.35442 10.0013 3.35433C10.0018 3.35442 10.0022 3.35451 10.0027 3.35461C10.0235 3.35866 10.0518 3.36489 10.1098 3.37777L16.2764 4.74814C16.4745 4.79216 16.5794 4.81599 16.6538 4.83837C16.6564 4.83914 16.6588 4.83989 16.6612 4.8406C16.6614 4.84302 16.6616 4.84557 16.6618 4.84825C16.6675 4.92578 16.668 5.0333 16.668 5.23623V6.16667C16.668 6.41377 16.6673 6.54899 16.6594 6.64614C16.6591 6.65001 16.6588 6.65366 16.6584 6.65712C16.655 6.65744 16.6513 6.65777 16.6474 6.65808C16.5503 6.66602 16.4151 6.66667 16.168 6.66667H3.83464ZM8.75131 8.33333V13.3333H11.2513V8.33333H8.75131ZM12.918 8.33333V13.3333H15.0013V8.33333H12.918ZM3.83464 15C3.58753 15 3.45232 15.0006 3.35517 15.0086C3.3513 15.0089 3.34764 15.0092 3.34418 15.0095C3.34386 15.013 3.34354 15.0167 3.34323 15.0205C3.33529 15.1177 3.33464 15.2529 3.33464 15.5V16.1667C3.33464 16.4138 3.33529 16.549 3.34323 16.6461C3.34354 16.65 3.34386 16.6537 3.34418 16.6571C3.34764 16.6574 3.3513 16.6578 3.35517 16.6581C3.45232 16.666 3.58753 16.6667 3.83464 16.6667H16.168C16.4151 16.6667 16.5503 16.666 16.6474 16.6581C16.6513 16.6578 16.655 16.6574 16.6584 16.6571C16.6588 16.6537 16.6591 16.65 16.6594 16.6461C16.6673 16.549 16.668 16.4138 16.668 16.1667V15.5C16.668 15.2529 16.6673 15.1177 16.6594 15.0205C16.6591 15.0167 16.6587 15.013 16.6584 15.0095C16.655 15.0092 16.6513 15.0089 16.6474 15.0086C16.5503 15.0007 16.4151 15 16.168 15H3.83464Z" fill="currentColor" fill-opacity="0.58"/>
</svg>
