<svg width="20" height="20" viewBox="0 0 20 20" fill="none" xmlns="http://www.w3.org/2000/svg">
<path fill-rule="evenodd" clip-rule="evenodd" d="M9.61892 5.05977C8.4044 5.43648 7.1249 5.83333 5.83204 5.83333C4.97603 5.83333 4.21074 5.74238 3.56465 5.61824C3.12479 5.53372 2.83175 5.47777 2.62068 5.44987C2.57909 5.44437 2.54466 5.44054 2.51637 5.43792C2.51456 5.45626 2.51274 5.47783 2.51107 5.50299C2.49915 5.68236 2.4987 5.9332 2.4987 6.32404L2.4987 15.281C2.4987 15.312 2.49873 15.3319 2.49895 15.3474C2.5008 15.3503 2.50271 15.3533 2.50467 15.3563C2.50662 15.3593 2.50856 15.3622 2.51047 15.365C2.94486 15.5491 3.92604 15.8333 5.83204 15.8333C7.3629 15.8333 8.71673 15.452 10.0661 15.0368C10.1697 15.005 10.2739 14.9727 10.3785 14.9402C11.593 14.5635 12.8725 14.1667 14.1654 14.1667C15.0214 14.1667 15.7867 14.2576 16.4328 14.3818C16.8726 14.4663 17.1657 14.5222 17.3767 14.5501C17.4183 14.5556 17.4527 14.5595 17.481 14.5621C17.4828 14.5437 17.4847 14.5222 17.4863 14.497C17.4983 14.3176 17.4987 14.0668 17.4987 13.676V4.71895C17.4987 4.68797 17.4987 4.66812 17.4985 4.65263C17.4966 4.64971 17.4947 4.64674 17.4927 4.64372C17.4908 4.64073 17.4888 4.6378 17.4869 4.63495C17.0525 4.45088 16.0714 4.16667 14.1654 4.16667C12.6345 4.16667 11.2807 4.54795 9.93127 4.96315C9.82766 4.99503 9.72353 5.02733 9.61892 5.05977ZM17.5797 14.5669C17.5816 14.5667 17.5826 14.5667 17.5828 14.5667ZM2.41769 5.43308C2.41564 5.43328 2.41455 5.43332 2.41452 5.4333ZM9.44113 3.37018C10.8001 2.95205 12.3629 2.5 14.1654 2.5C16.2867 2.5 17.512 2.82409 18.1951 3.12542C18.1971 3.12629 18.1993 3.12725 18.2017 3.1283C18.2378 3.14413 18.3206 3.1804 18.4115 3.24003C18.5041 3.30084 18.5815 3.36935 18.6494 3.43412C18.7543 3.53428 18.8421 3.6617 18.889 3.73359C18.9358 3.80547 19.017 3.9372 19.0663 4.07365C19.1655 4.34839 19.1654 4.54346 19.1654 4.70775L19.1654 13.7041C19.1654 14.0587 19.1654 14.3659 19.1493 14.6075C19.1344 14.833 19.1006 15.1483 18.9382 15.4265C18.8499 15.578 18.7346 15.738 18.5654 15.8778C18.3963 16.0175 18.2173 16.1005 18.0519 16.1587C17.7363 16.2698 17.3912 16.2332 17.1583 16.2024C16.8928 16.1673 16.5512 16.1017 16.1445 16.0235L16.1183 16.0185C15.563 15.9118 14.9036 15.8333 14.1654 15.8333C13.1366 15.8333 12.0938 16.1552 10.8101 16.5516C10.7265 16.5773 10.6419 16.6035 10.5563 16.6298C9.19734 17.0479 7.63451 17.5 5.83204 17.5C3.71075 17.5 2.4854 17.1759 1.80228 16.8746C1.80031 16.8737 1.79812 16.8727 1.79572 16.8717C1.7596 16.8559 1.67682 16.8196 1.58594 16.76C1.49328 16.6992 1.4159 16.6306 1.34804 16.5659C1.24308 16.4657 1.15531 16.3383 1.10846 16.2664C1.0616 16.1945 0.980438 16.0628 0.931152 15.9263C0.83192 15.6516 0.831982 15.4565 0.832034 15.2922L0.832036 6.29588C0.832025 5.94132 0.832015 5.63407 0.848065 5.3925C0.863047 5.167 0.896837 4.85168 1.05917 4.57348C1.14754 4.42202 1.26283 4.26199 1.43199 4.12224C1.60114 3.98249 1.78006 3.89947 1.94547 3.84126C2.26108 3.7302 2.6062 3.76679 2.8391 3.79758C3.10456 3.83267 3.44617 3.89831 3.85292 3.97647L3.87913 3.98151C4.43436 4.08819 5.09384 4.16667 5.83204 4.16667C6.86085 4.16667 7.90356 3.84476 9.18734 3.44844C9.2709 3.42265 9.35547 3.39654 9.44113 3.37018ZM14.9987 6.66667C15.4589 6.66667 15.832 7.03976 15.832 7.5V10.8333C15.832 11.2936 15.4589 11.6667 14.9987 11.6667C14.5385 11.6667 14.1654 11.2936 14.1654 10.8333V7.5C14.1654 7.03976 14.5385 6.66667 14.9987 6.66667ZM9.9987 8.75C9.30835 8.75 8.7487 9.30964 8.7487 10C8.7487 10.6904 9.30835 11.25 9.9987 11.25C10.6891 11.25 11.2487 10.6904 11.2487 10C11.2487 9.30964 10.6891 8.75 9.9987 8.75ZM7.08204 10C7.08204 8.38917 8.38787 7.08333 9.9987 7.08333C11.6095 7.08333 12.9154 8.38917 12.9154 10C12.9154 11.6108 11.6095 12.9167 9.9987 12.9167C8.38787 12.9167 7.08204 11.6108 7.08204 10ZM4.9987 8.33333C5.45894 8.33333 5.83204 8.70643 5.83204 9.16667V12.5C5.83204 12.9602 5.45894 13.3333 4.9987 13.3333C4.53847 13.3333 4.16537 12.9602 4.16537 12.5V9.16667C4.16537 8.70643 4.53847 8.33333 4.9987 8.33333Z" fill="currentColor" fill-opacity="0.58"/>
</svg>
