<svg width="20" height="20" viewBox="0 0 20 20" fill="none" xmlns="http://www.w3.org/2000/svg">
<g clip-path="url(#clip0_9031_18307)">
<path fill-rule="evenodd" clip-rule="evenodd" d="M6.00113 6.00221C6.68115 3.04129 9.33148 0.833336 12.4987 0.833336C16.1806 0.833336 19.1654 3.8181 19.1654 7.5C19.1654 10.6672 16.9574 13.3175 13.9965 13.9976C13.3169 16.9584 10.6657 19.1667 7.4987 19.1667C3.8168 19.1667 0.832031 16.1819 0.832031 12.5C0.832031 9.33301 3.04034 6.6818 6.00113 6.00221ZM6.81584 7.54624C6.82426 7.54525 6.83265 7.54412 6.841 7.54287C7.05622 7.51459 7.27576 7.5 7.4987 7.5C10.2601 7.5 12.4987 9.73858 12.4987 12.5C12.4987 12.7229 12.4841 12.9425 12.4558 13.1577C12.4546 13.1661 12.4535 13.1744 12.4525 13.1829C12.1195 15.6212 10.0285 17.5 7.4987 17.5C4.73727 17.5 2.4987 15.2614 2.4987 12.5C2.4987 9.97022 4.37747 7.87924 6.81584 7.54624ZM14.1595 12.2178C14.0155 8.76037 11.2383 5.98319 7.78092 5.8392C8.46551 3.89433 10.3198 2.5 12.4987 2.5C15.2601 2.5 17.4987 4.73858 17.4987 7.5C17.4987 9.67892 16.1044 11.5332 14.1595 12.2178ZM7.89191 9.26527C8.16288 9.41029 8.33203 9.69267 8.33203 10V13.75H8.7487C9.20894 13.75 9.58203 14.1231 9.58203 14.5833C9.58203 15.0436 9.20894 15.4167 8.7487 15.4167H6.2487C5.78846 15.4167 5.41536 15.0436 5.41536 14.5833C5.41536 14.1231 5.78846 13.75 6.2487 13.75H6.66536V11.5551C6.28789 11.7735 5.80062 11.6635 5.55532 11.2956C5.30003 10.9126 5.40351 10.3953 5.78645 10.14L7.03645 9.30663C7.29216 9.13615 7.62095 9.12026 7.89191 9.26527Z" fill="currentColor" fill-opacity="0.58"/>
</g>
<defs>
<clipPath id="clip0_9031_18307">
<rect width="20" height="20" fill="white"/>
</clipPath>
</defs>
</svg>
