<svg width="20" height="20" viewBox="0 0 20 20" fill="none" xmlns="http://www.w3.org/2000/svg">
<path fill-rule="evenodd" clip-rule="evenodd" d="M9.56584 1.11365C9.85109 1.03642 10.1517 1.03642 10.437 1.11365C10.7681 1.20331 11.0469 1.42219 11.2694 1.59688C11.2907 1.61356 11.3114 1.62984 11.3316 1.64556L16.9835 6.0415C17.0053 6.05842 17.0269 6.07518 17.0483 6.0918C17.3622 6.33536 17.6387 6.54995 17.8447 6.82853C18.0255 7.07301 18.1602 7.34844 18.2422 7.64127C18.3356 7.97495 18.3352 8.32496 18.3348 8.72225C18.3348 8.74935 18.3348 8.77668 18.3348 8.80423V14.8655C18.3348 15.3048 18.3348 15.6837 18.3093 15.9959C18.2824 16.3253 18.2229 16.653 18.0623 16.9683C17.8226 17.4387 17.4401 17.8212 16.9697 18.0609C16.6544 18.2215 16.3267 18.2809 15.9973 18.3079C15.6851 18.3334 15.3062 18.3334 14.8669 18.3333H13.1681C13.1617 18.3333 13.1553 18.3333 13.1488 18.3333C13.0495 18.3334 12.931 18.3334 12.8266 18.3249C12.7055 18.315 12.5322 18.2896 12.3506 18.1971C12.1154 18.0773 11.9242 17.886 11.8043 17.6508C11.7118 17.4692 11.6864 17.2959 11.6765 17.1749C11.668 17.0704 11.668 16.9519 11.6681 16.8526L11.6681 11.3333C11.6681 11.0862 11.6674 10.951 11.6595 10.8539C11.6592 10.85 11.6589 10.8463 11.6585 10.8429C11.6551 10.8426 11.6514 10.8422 11.6476 10.8419C11.5504 10.834 11.4152 10.8333 11.1681 10.8333H8.83475C8.58765 10.8333 8.45243 10.834 8.35528 10.8419C8.35141 10.8422 8.34775 10.8426 8.34429 10.8429C8.34397 10.8463 8.34365 10.85 8.34334 10.8539C8.3354 10.951 8.33475 11.0862 8.33475 11.3333L8.33476 16.8526C8.33479 16.9519 8.33484 17.0704 8.32631 17.1749C8.31642 17.2959 8.29105 17.4692 8.19851 17.6508C8.07867 17.886 7.88744 18.0773 7.65224 18.1971C7.47062 18.2896 7.29729 18.315 7.17628 18.3249C7.07185 18.3334 6.9533 18.3334 6.85404 18.3333C6.84753 18.3333 6.84109 18.3333 6.83475 18.3333H5.13595C4.69666 18.3334 4.3177 18.3334 4.00556 18.3079C3.67611 18.2809 3.34843 18.2215 3.03311 18.0609C2.5627 17.8212 2.18025 17.4387 1.94057 16.9683C1.77991 16.653 1.72048 16.3253 1.69356 15.9959C1.66806 15.6837 1.66807 15.3048 1.66808 14.8655L1.66808 8.80423C1.66808 8.77667 1.66806 8.74935 1.66803 8.72224C1.6676 8.32496 1.66722 7.97495 1.76062 7.64127C1.84259 7.34844 1.97729 7.07301 2.15812 6.82853C2.36417 6.54994 2.64068 6.33535 2.95454 6.09178C2.97596 6.07517 2.99754 6.05841 3.01929 6.0415L8.67121 1.64556C8.69143 1.62984 8.71216 1.61356 8.7334 1.59688C8.95591 1.42219 9.2347 1.20331 9.56584 1.11365ZM9.99534 2.73463C9.93271 2.77647 9.8502 2.84 9.69445 2.96115L4.04253 7.35708C3.62747 7.67991 3.55017 7.7492 3.4981 7.81961C3.43782 7.9011 3.39292 7.99291 3.3656 8.09052C3.34199 8.17485 3.33475 8.27841 3.33475 8.80423V14.8333C3.33475 15.3138 3.3354 15.624 3.35469 15.8601C3.37319 16.0865 3.40459 16.1705 3.42558 16.2117C3.50547 16.3685 3.63296 16.496 3.78976 16.5758C3.83096 16.5968 3.9149 16.6282 4.14128 16.6467C4.3774 16.666 4.68762 16.6667 5.16808 16.6667H6.66809L6.66808 11.3068C6.66806 11.0964 6.66803 10.8916 6.68221 10.7181C6.69777 10.5277 6.73449 10.3029 6.84974 10.0767C7.00953 9.76309 7.2645 9.50812 7.5781 9.34833C7.80429 9.23308 8.02907 9.19636 8.21956 9.18079C8.39303 9.16662 8.59786 9.16665 8.80818 9.16667H11.1947C11.405 9.16665 11.6098 9.16662 11.7833 9.18079C11.9738 9.19636 12.1985 9.23308 12.4247 9.34833C12.7383 9.50812 12.9933 9.76309 13.1531 10.0767C13.2683 10.3029 13.3051 10.5277 13.3206 10.7181C13.3348 10.8916 13.3348 11.0964 13.3348 11.3068L13.3348 16.6667H14.8348C15.3152 16.6667 15.6254 16.666 15.8616 16.6467C16.0879 16.6282 16.1719 16.5968 16.2131 16.5758C16.3699 16.496 16.4974 16.3685 16.5773 16.2117C16.5983 16.1705 16.6296 16.0865 16.6481 15.8601C16.6674 15.624 16.6681 15.3138 16.6681 14.8333V8.80423C16.6681 8.27841 16.6608 8.17485 16.6372 8.09052C16.6099 7.99291 16.565 7.9011 16.5047 7.81961C16.4527 7.7492 16.3754 7.67991 15.9603 7.35709L10.3084 2.96115C10.1526 2.84 10.0701 2.77647 10.0075 2.73463C10.0054 2.73321 10.0034 2.73187 10.0014 2.7306C9.99949 2.73187 9.99746 2.73321 9.99534 2.73463Z" fill="currentColor" fill-opacity="0.58"/>
</svg>
