<svg width="20" height="20" viewBox="0 0 20 20" fill="none" xmlns="http://www.w3.org/2000/svg">
<g clip-path="url(#clip0_9031_18364)">
<path fill-rule="evenodd" clip-rule="evenodd" d="M9.9987 2.5C5.85656 2.5 2.4987 5.85787 2.4987 10C2.4987 14.1421 5.85656 17.5 9.9987 17.5C14.1408 17.5 17.4987 14.1421 17.4987 10C17.4987 5.85787 14.1408 2.5 9.9987 2.5ZM0.832031 10C0.832031 4.93739 4.93609 0.833336 9.9987 0.833336C15.0613 0.833336 19.1654 4.93739 19.1654 10C19.1654 15.0626 15.0613 19.1667 9.9987 19.1667C4.93609 19.1667 0.832031 15.0626 0.832031 10ZM9.16536 6.66667C9.16536 6.20643 9.53846 5.83334 9.9987 5.83334H10.007C10.4673 5.83334 10.8404 6.20643 10.8404 6.66667C10.8404 7.12691 10.4673 7.5 10.007 7.5H9.9987C9.53846 7.5 9.16536 7.12691 9.16536 6.66667ZM9.9987 9.16667C10.4589 9.16667 10.832 9.53977 10.832 10V13.3333C10.832 13.7936 10.4589 14.1667 9.9987 14.1667C9.53846 14.1667 9.16536 13.7936 9.16536 13.3333V10C9.16536 9.53977 9.53846 9.16667 9.9987 9.16667Z" fill="currentColor" fill-opacity="0.58"/>
</g>
<defs>
<clipPath id="clip0_9031_18364">
<rect width="20" height="20" fill="white"/>
</clipPath>
</defs>
</svg>
