<svg width="20" height="20" viewBox="0 0 20 20" fill="none" xmlns="http://www.w3.org/2000/svg">
<path fill-rule="evenodd" clip-rule="evenodd" d="M11.1662 0.902252C11.5055 1.04956 11.7071 1.40295 11.6613 1.77003L10.945 7.5L16.1075 7.5C16.3083 7.49996 16.5117 7.49993 16.6779 7.51497C16.8351 7.5292 17.1361 7.56685 17.3971 7.77777C17.6959 8.01924 17.8671 8.3847 17.8613 8.76885C17.8562 9.1044 17.6925 9.35971 17.6028 9.48956C17.5079 9.62686 17.3777 9.78309 17.2491 9.93734L9.80788 18.8668C9.57105 19.151 9.17521 19.2451 8.83586 19.0978C8.49652 18.9504 8.29491 18.5971 8.34079 18.23L9.05704 12.5L3.89455 12.5C3.69372 12.5 3.49031 12.5001 3.32412 12.485C3.16695 12.4708 2.86598 12.4332 2.60496 12.2222C2.30615 11.9808 2.13497 11.6153 2.14077 11.2312C2.14583 10.8956 2.30958 10.6403 2.39927 10.5104C2.49411 10.3731 2.62437 10.2169 2.75297 10.0626C2.75933 10.055 2.7657 10.0474 2.77205 10.0397L10.1942 1.13318C10.431 0.848988 10.8268 0.754945 11.1662 0.902252ZM4.28023 10.8333H10.001C10.24 10.8333 10.4676 10.936 10.6258 11.1152C10.7839 11.2944 10.8576 11.5329 10.8279 11.77L10.3471 15.6163L15.7218 9.16667H10.001C9.762 9.16667 9.53448 9.06403 9.37629 8.88484C9.2181 8.70565 9.14448 8.46716 9.17413 8.22997L9.65491 4.38372L4.28023 10.8333Z" fill="currentColor" fill-opacity="0.58"/>
</svg>
