<svg width="20" height="20" viewBox="0 0 20 20" fill="none" xmlns="http://www.w3.org/2000/svg">
<path fill-rule="evenodd" clip-rule="evenodd" d="M17.4659 2.53223C16.0764 2.645 14.7229 3.0503 13.4957 3.72526C12.0158 4.53921 10.7688 5.71825 9.87316 7.15022L9.86849 7.1577C9.33068 7.99769 8.86581 8.88182 8.47888 9.8004L10.2016 11.5231C11.1313 11.1371 12.0268 10.6728 12.8784 10.135C16.3994 7.76983 17.2957 4.67729 17.4659 2.53223ZM12.7844 12.1258C12.1521 12.4749 11.5007 12.7886 10.8333 13.0654V15.5878C10.9134 15.5616 10.9957 15.5334 11.0793 15.5031C11.7982 15.2423 12.3976 14.8995 12.6403 14.5372C12.7596 14.358 12.848 14.0813 12.8832 13.7023C12.9178 13.3301 12.8959 12.917 12.8443 12.5169C12.8269 12.3817 12.8064 12.2505 12.7844 12.1258ZM9.99997 16.6667L10.1488 17.4866C9.90571 17.5307 9.65558 17.4647 9.46592 17.3064C9.27626 17.1481 9.16663 16.9137 9.16663 16.6667V12.8452L7.15479 10.8333H3.3333C3.08624 10.8333 2.85192 10.7237 2.69359 10.5341C2.53525 10.3444 2.46924 10.0943 2.51337 9.85117L3.3333 10C2.51337 9.85117 2.51333 9.85135 2.51337 9.85117L2.51369 9.8494L2.51419 9.8467L2.51571 9.83856L2.52087 9.81165C2.52528 9.78912 2.53161 9.75755 2.53995 9.71798C2.55663 9.63891 2.58142 9.52749 2.61497 9.39222C2.68177 9.12293 2.78482 8.75286 2.93012 8.3523C3.2005 7.6069 3.69085 6.53982 4.53662 5.97403L4.53772 5.97329C5.03354 5.64274 5.61504 5.50633 6.14342 5.45723C6.67899 5.40745 7.22326 5.44174 7.69607 5.50267C8.13406 5.55912 8.52999 5.64102 8.82909 5.71258C9.83813 4.28852 11.1582 3.10877 12.6925 2.2649C14.4216 1.31392 16.3652 0.821113 18.3385 0.833352C18.7967 0.836194 19.1666 1.20845 19.1666 1.66667C19.1666 4.00858 18.5097 8.08973 14.2897 11.1805C14.3607 11.4785 14.4415 11.8706 14.4973 12.3039C14.5582 12.7767 14.5925 13.321 14.5427 13.8566C14.4936 14.3849 14.3572 14.9664 14.0267 15.4623L14.0259 15.4634C13.4602 16.3091 12.3931 16.7995 11.6477 17.0698C11.2471 17.2151 10.877 17.3182 10.6078 17.385C10.4725 17.4186 10.3611 17.4433 10.282 17.46C10.2424 17.4684 10.2108 17.4747 10.1883 17.4791L10.1614 17.4843L10.1533 17.4858L10.1506 17.4863L10.1488 17.4866C10.1486 17.4866 10.1488 17.4866 9.99997 16.6667ZM7.88941 7.21826C7.53561 7.84911 7.21772 8.49962 6.93733 9.16667H4.4122C4.43835 9.08659 4.46657 9.00424 4.4969 8.92062C4.75762 8.20186 5.10035 7.60255 5.46269 7.35973C5.64188 7.24044 5.91857 7.15197 6.29766 7.11674C6.66991 7.08214 7.08293 7.1041 7.48303 7.15567C7.6238 7.17381 7.76021 7.19525 7.88941 7.21826ZM3.21346 13.1123C3.71285 12.6917 4.34995 12.4702 5.00258 12.4904C5.65544 12.5106 6.27784 12.7712 6.75034 13.2222L6.76046 13.232C7.7508 14.2098 7.7381 15.7793 6.88724 16.787C6.51835 17.2257 6.01029 17.5479 5.5217 17.7865C5.02321 18.03 4.48526 18.2151 4.00206 18.3533C3.5162 18.4923 3.06808 18.5889 2.74214 18.6507C2.57859 18.6818 2.44435 18.7044 2.34974 18.7194C2.30241 18.7269 2.26489 18.7325 2.23849 18.7363L2.20733 18.7408L2.19827 18.742L2.19443 18.7426C2.19427 18.7426 2.19373 18.7427 2.0833 17.9167C1.25732 17.8062 1.25734 17.8061 1.25736 17.8059L1.25793 17.8017L1.25918 17.7926L1.26363 17.7615C1.26747 17.7351 1.27309 17.6976 1.28059 17.6502C1.29559 17.5556 1.31818 17.4214 1.34923 17.2578C1.41112 16.9319 1.50771 16.4838 1.64668 15.9979C1.7849 15.5147 1.96993 14.9768 2.21342 14.4783C2.45216 13.9895 2.77448 13.4813 3.21346 13.1123ZM2.0833 17.9167L1.25736 17.8059C1.22295 18.0633 1.31044 18.3223 1.49404 18.5059C1.67765 18.6895 1.93706 18.777 2.19443 18.7426L2.0833 17.9167ZM3.14201 16.858C3.27121 16.8259 3.40599 16.7903 3.54371 16.7509C3.97092 16.6287 4.40901 16.4752 4.79021 16.289C5.18096 16.0981 5.45584 15.8998 5.61188 15.714L5.61353 15.7121C5.94352 15.3216 5.91576 14.7457 5.59436 14.4229C5.41968 14.2586 5.19091 14.1637 4.95106 14.1563C4.70881 14.1488 4.47232 14.231 4.28698 14.3872L4.28596 14.3881C4.1002 14.5441 3.90185 14.819 3.71099 15.2098C3.52479 15.591 3.37129 16.029 3.24908 16.4563C3.20969 16.594 3.17406 16.7288 3.14201 16.858Z" fill="currentColor" fill-opacity="0.58"/>
</svg>
