<svg width="132" height="20" viewBox="0 0 132 20" fill="none" xmlns="http://www.w3.org/2000/svg">
<path opacity="0.6" d="M2.076 10.0848H4.308C4.956 10.0928 5.428 9.96083 5.724 9.68883C6.028 9.41683 6.18 9.02483 6.18 8.51283C6.18 8.00083 6.028 7.61283 5.724 7.34883C5.428 7.07683 4.956 6.94083 4.308 6.94083H2.076V10.0848ZM0.936 5.98083H4.692C5.556 5.98083 6.208 6.20483 6.648 6.65283C7.096 7.09283 7.32 7.71283 7.32 8.51283C7.32 9.31283 7.096 9.93683 6.648 10.3848C6.208 10.8328 5.556 11.0528 4.692 11.0448H2.076V14.5488H0.936V5.98083ZM8.93325 11.4528C8.93325 11.8288 8.98125 12.1648 9.07725 12.4608C9.18125 12.7488 9.32125 12.9928 9.49725 13.1928C9.67325 13.3848 9.87725 13.5328 10.1092 13.6368C10.3492 13.7408 10.6012 13.7928 10.8652 13.7928C11.1293 13.7928 11.3773 13.7408 11.6092 13.6368C11.8492 13.5328 12.0573 13.3848 12.2333 13.1928C12.4093 12.9928 12.5453 12.7488 12.6413 12.4608C12.7453 12.1648 12.7973 11.8288 12.7973 11.4528C12.7973 11.0768 12.7453 10.7448 12.6413 10.4568C12.5453 10.1608 12.4093 9.91283 12.2333 9.71283C12.0573 9.51283 11.8492 9.36083 11.6092 9.25683C11.3773 9.15283 11.1293 9.10083 10.8652 9.10083C10.6012 9.10083 10.3492 9.15283 10.1092 9.25683C9.87725 9.36083 9.67325 9.51283 9.49725 9.71283C9.32125 9.91283 9.18125 10.1608 9.07725 10.4568C8.98125 10.7448 8.93325 11.0768 8.93325 11.4528ZM7.85325 11.4528C7.85325 10.9968 7.91725 10.5728 8.04525 10.1808C8.17325 9.78083 8.36525 9.43683 8.62125 9.14883C8.87725 8.85283 9.19325 8.62083 9.56925 8.45283C9.94525 8.28483 10.3772 8.20083 10.8652 8.20083C11.3612 8.20083 11.7932 8.28483 12.1612 8.45283C12.5373 8.62083 12.8533 8.85283 13.1093 9.14883C13.3653 9.43683 13.5573 9.78083 13.6853 10.1808C13.8133 10.5728 13.8773 10.9968 13.8773 11.4528C13.8773 11.9088 13.8133 12.3328 13.6853 12.7248C13.5573 13.1168 13.3653 13.4608 13.1093 13.7568C12.8533 14.0448 12.5373 14.2728 12.1612 14.4408C11.7932 14.6008 11.3612 14.6808 10.8652 14.6808C10.3772 14.6808 9.94525 14.6008 9.56925 14.4408C9.19325 14.2728 8.87725 14.0448 8.62125 13.7568C8.36525 13.4608 8.17325 13.1168 8.04525 12.7248C7.91725 12.3328 7.85325 11.9088 7.85325 11.4528ZM20.8639 14.5488H19.7839L18.5239 9.61683H18.4999L17.2519 14.5488H16.1479L14.1559 8.34483H15.2839L16.6879 13.4208H16.7119L17.9599 8.34483H19.0759L20.3719 13.4208H20.3959L21.7879 8.34483H22.8439L20.8639 14.5488ZM27.7616 10.8528C27.7456 10.6128 27.6896 10.3848 27.5936 10.1688C27.5056 9.95283 27.3816 9.76883 27.2216 9.61683C27.0696 9.45683 26.8856 9.33283 26.6696 9.24483C26.4616 9.14883 26.2296 9.10083 25.9736 9.10083C25.7096 9.10083 25.4696 9.14883 25.2536 9.24483C25.0456 9.33283 24.8656 9.45683 24.7136 9.61683C24.5616 9.77683 24.4416 9.96483 24.3536 10.1808C24.2656 10.3888 24.2136 10.6128 24.1976 10.8528H27.7616ZM28.7456 12.5808C28.6096 13.2768 28.3096 13.8008 27.8456 14.1528C27.3816 14.5048 26.7976 14.6808 26.0936 14.6808C25.5976 14.6808 25.1656 14.6008 24.7976 14.4408C24.4376 14.2808 24.1336 14.0568 23.8856 13.7688C23.6376 13.4808 23.4496 13.1368 23.3216 12.7368C23.2016 12.3368 23.1336 11.9008 23.1176 11.4288C23.1176 10.9568 23.1896 10.5248 23.3336 10.1328C23.4776 9.74083 23.6776 9.40083 23.9336 9.11283C24.1976 8.82483 24.5056 8.60083 24.8576 8.44083C25.2176 8.28083 25.6096 8.20083 26.0336 8.20083C26.5856 8.20083 27.0416 8.31683 27.4016 8.54883C27.7696 8.77283 28.0616 9.06083 28.2776 9.41283C28.5016 9.76483 28.6536 10.1488 28.7336 10.5648C28.8216 10.9808 28.8576 11.3768 28.8416 11.7528H24.1976C24.1896 12.0248 24.2216 12.2848 24.2936 12.5328C24.3656 12.7728 24.4816 12.9888 24.6416 13.1808C24.8016 13.3648 25.0056 13.5128 25.2536 13.6248C25.5016 13.7368 25.7936 13.7928 26.1296 13.7928C26.5616 13.7928 26.9136 13.6928 27.1856 13.4928C27.4656 13.2928 27.6496 12.9888 27.7376 12.5808H28.7456ZM29.5029 8.34483H30.4629V9.65283H30.4869C30.7349 9.14883 31.0389 8.77683 31.3989 8.53683C31.7589 8.29683 32.2149 8.18483 32.7669 8.20083V9.28083C32.3589 9.28083 32.0109 9.33683 31.7229 9.44883C31.4349 9.56083 31.2029 9.72483 31.0269 9.94083C30.8509 10.1568 30.7229 10.4208 30.6429 10.7328C30.5629 11.0368 30.5229 11.3888 30.5229 11.7888V14.5488H29.5029V8.34483ZM37.2721 10.8528C37.2561 10.6128 37.2001 10.3848 37.1041 10.1688C37.0161 9.95283 36.8921 9.76883 36.7321 9.61683C36.5801 9.45683 36.3961 9.33283 36.1801 9.24483C35.9721 9.14883 35.7401 9.10083 35.4841 9.10083C35.2201 9.10083 34.9801 9.14883 34.7641 9.24483C34.5561 9.33283 34.3761 9.45683 34.2241 9.61683C34.0721 9.77683 33.9521 9.96483 33.8641 10.1808C33.7761 10.3888 33.7241 10.6128 33.7081 10.8528H37.2721ZM38.2561 12.5808C38.1201 13.2768 37.8201 13.8008 37.3561 14.1528C36.8921 14.5048 36.3081 14.6808 35.6041 14.6808C35.1081 14.6808 34.6761 14.6008 34.3081 14.4408C33.9481 14.2808 33.6441 14.0568 33.3961 13.7688C33.1481 13.4808 32.9601 13.1368 32.8321 12.7368C32.7121 12.3368 32.6441 11.9008 32.6281 11.4288C32.6281 10.9568 32.7001 10.5248 32.8441 10.1328C32.9881 9.74083 33.1881 9.40083 33.4441 9.11283C33.7081 8.82483 34.0161 8.60083 34.3681 8.44083C34.7281 8.28083 35.1201 8.20083 35.5441 8.20083C36.0961 8.20083 36.5521 8.31683 36.9121 8.54883C37.2801 8.77283 37.5721 9.06083 37.7881 9.41283C38.0121 9.76483 38.1641 10.1488 38.2441 10.5648C38.3321 10.9808 38.3681 11.3768 38.3521 11.7528H33.7081C33.7001 12.0248 33.7321 12.2848 33.8041 12.5328C33.8761 12.7728 33.9921 12.9888 34.1521 13.1808C34.3121 13.3648 34.5161 13.5128 34.7641 13.6248C35.0121 13.7368 35.3041 13.7928 35.6401 13.7928C36.0721 13.7928 36.4241 13.6928 36.6961 13.4928C36.9761 13.2928 37.1601 12.9888 37.2481 12.5808H38.2561ZM39.7934 11.5008C39.7934 11.7888 39.8294 12.0728 39.9014 12.3528C39.9814 12.6248 40.0974 12.8688 40.2494 13.0848C40.4094 13.3008 40.6094 13.4728 40.8494 13.6008C41.0974 13.7288 41.3854 13.7928 41.7134 13.7928C42.0574 13.7928 42.3494 13.7248 42.5894 13.5888C42.8294 13.4528 43.0254 13.2768 43.1774 13.0608C43.3294 12.8368 43.4374 12.5848 43.5014 12.3048C43.5734 12.0248 43.6094 11.7408 43.6094 11.4528C43.6094 11.1488 43.5734 10.8568 43.5014 10.5768C43.4294 10.2888 43.3134 10.0368 43.1534 9.82083C43.0014 9.60483 42.8014 9.43283 42.5534 9.30483C42.3054 9.16883 42.0054 9.10083 41.6534 9.10083C41.3094 9.10083 41.0174 9.16883 40.7774 9.30483C40.5374 9.44083 40.3454 9.62083 40.2014 9.84483C40.0574 10.0688 39.9534 10.3248 39.8894 10.6128C39.8254 10.9008 39.7934 11.1968 39.7934 11.5008ZM44.5934 14.5488H43.5734V13.7088H43.5494C43.3814 14.0528 43.1174 14.3008 42.7574 14.4528C42.3974 14.6048 42.0014 14.6808 41.5694 14.6808C41.0894 14.6808 40.6694 14.5928 40.3094 14.4168C39.9574 14.2408 39.6614 14.0048 39.4214 13.7088C39.1894 13.4128 39.0134 13.0688 38.8934 12.6768C38.7734 12.2848 38.7134 11.8688 38.7134 11.4288C38.7134 10.9888 38.7694 10.5728 38.8814 10.1808C39.0014 9.78883 39.1774 9.44883 39.4094 9.16083C39.6494 8.86483 39.9454 8.63283 40.2974 8.46483C40.6574 8.28883 41.0734 8.20083 41.5454 8.20083C41.7054 8.20083 41.8774 8.21683 42.0614 8.24883C42.2454 8.28083 42.4294 8.33683 42.6134 8.41683C42.7974 8.48883 42.9694 8.58883 43.1294 8.71683C43.2974 8.83683 43.4374 8.98883 43.5494 9.17283H43.5734V5.98083H44.5934V14.5488ZM48.8185 5.98083H49.8385V9.18483H49.8625C50.0305 8.84083 50.2945 8.59283 50.6545 8.44083C51.0145 8.28083 51.4105 8.20083 51.8425 8.20083C52.3225 8.20083 52.7385 8.28883 53.0905 8.46483C53.4505 8.64083 53.7465 8.88083 53.9785 9.18483C54.2185 9.48083 54.3985 9.82483 54.5185 10.2168C54.6385 10.6088 54.6985 11.0248 54.6985 11.4648C54.6985 11.9048 54.6385 12.3208 54.5185 12.7128C54.4065 13.1048 54.2305 13.4488 53.9905 13.7448C53.7585 14.0328 53.4625 14.2608 53.1025 14.4288C52.7505 14.5968 52.3385 14.6808 51.8665 14.6808C51.7145 14.6808 51.5425 14.6648 51.3505 14.6328C51.1665 14.6008 50.9825 14.5488 50.7985 14.4768C50.6145 14.4048 50.4385 14.3088 50.2705 14.1888C50.1105 14.0608 49.9745 13.9048 49.8625 13.7208H49.8385V14.5488H48.8185V5.98083ZM53.6185 11.3928C53.6185 11.1048 53.5785 10.8248 53.4985 10.5528C53.4265 10.2728 53.3105 10.0248 53.1505 9.80883C52.9985 9.59283 52.7985 9.42083 52.5505 9.29283C52.3105 9.16483 52.0265 9.10083 51.6985 9.10083C51.3545 9.10083 51.0625 9.16883 50.8225 9.30483C50.5825 9.44083 50.3865 9.62083 50.2345 9.84483C50.0825 10.0608 49.9705 10.3088 49.8985 10.5888C49.8345 10.8688 49.8025 11.1528 49.8025 11.4408C49.8025 11.7448 49.8385 12.0408 49.9105 12.3288C49.9825 12.6088 50.0945 12.8568 50.2465 13.0728C50.4065 13.2888 50.6105 13.4648 50.8585 13.6008C51.1065 13.7288 51.4065 13.7928 51.7585 13.7928C52.1105 13.7928 52.4025 13.7248 52.6345 13.5888C52.8745 13.4528 53.0665 13.2728 53.2105 13.0488C53.3545 12.8248 53.4585 12.5688 53.5225 12.2808C53.5865 11.9928 53.6185 11.6968 53.6185 11.3928ZM57.9718 15.3768C57.8518 15.6808 57.7318 15.9368 57.6118 16.1448C57.4998 16.3528 57.3718 16.5208 57.2278 16.6488C57.0918 16.7848 56.9358 16.8808 56.7598 16.9368C56.5918 17.0008 56.3958 17.0328 56.1718 17.0328C56.0518 17.0328 55.9318 17.0248 55.8118 17.0088C55.6918 16.9928 55.5758 16.9648 55.4638 16.9248V15.9888C55.5518 16.0288 55.6518 16.0608 55.7638 16.0848C55.8838 16.1168 55.9838 16.1328 56.0638 16.1328C56.2718 16.1328 56.4438 16.0808 56.5798 15.9768C56.7238 15.8808 56.8318 15.7408 56.9038 15.5568L57.3238 14.5128L54.8638 8.34483H56.0158L57.8278 13.4208H57.8518L59.5918 8.34483H60.6718L57.9718 15.3768Z" fill="white"/>
<g filter="url(#filter0_f_349_2017)">
<path d="M108.325 4.63074H110.173L113.993 14.5488H112.131L111.201 11.9235H107.242L106.311 14.5488H104.519L108.325 4.63074ZM107.714 10.6038H110.742L109.256 6.33932H109.214L107.714 10.6038ZM114.382 4.63074H116.118V14.5488H114.382V4.63074Z" fill="url(#paint0_linear_349_2017)"/>
</g>
<path d="M66.9004 12.5645C66.94 12.9614 67.0909 13.2392 67.3528 13.398C67.6147 13.5567 67.9283 13.6361 68.2934 13.6361C68.4204 13.6361 68.5633 13.6282 68.722 13.6123C68.8887 13.5885 69.0435 13.5488 69.1864 13.4932C69.3293 13.4377 69.4444 13.3583 69.5317 13.2551C69.6269 13.144 69.6706 13.0011 69.6627 12.8265C69.6547 12.6519 69.5912 12.509 69.4722 12.3979C69.3531 12.2867 69.1983 12.1994 69.0078 12.1359C68.8252 12.0645 68.6149 12.0049 68.3768 11.9573C68.1386 11.9097 67.8965 11.8581 67.6505 11.8025C67.3965 11.747 67.1504 11.6795 66.9123 11.6001C66.6821 11.5207 66.4717 11.4136 66.2812 11.2786C66.0987 11.1437 65.9518 10.973 65.8407 10.7667C65.7296 10.5523 65.674 10.2904 65.674 9.98084C65.674 9.64746 65.7534 9.36964 65.9121 9.14739C66.0788 8.91719 66.2852 8.73463 66.5313 8.59969C66.7853 8.45681 67.0631 8.35759 67.3647 8.30203C67.6743 8.24646 67.968 8.21868 68.2458 8.21868C68.5633 8.21868 68.8649 8.2544 69.1507 8.32584C69.4444 8.38934 69.7063 8.4965 69.9365 8.64731C70.1746 8.79813 70.3691 8.99657 70.5199 9.24264C70.6787 9.48077 70.7779 9.77049 70.8176 10.1118H69.4007C69.3372 9.78637 69.1864 9.56808 68.9483 9.45695C68.7181 9.34583 68.4522 9.29026 68.1505 9.29026C68.0553 9.29026 67.9402 9.2982 67.8052 9.31408C67.6782 9.32995 67.5552 9.3617 67.4361 9.40933C67.325 9.44902 67.2298 9.51252 67.1504 9.59983C67.071 9.67921 67.0313 9.78637 67.0313 9.92131C67.0313 10.088 67.0869 10.2229 67.198 10.3261C67.3171 10.4293 67.4679 10.5166 67.6505 10.5881C67.841 10.6516 68.0553 10.7071 68.2934 10.7548C68.5315 10.8024 68.7776 10.854 69.0316 10.9095C69.2777 10.9651 69.5198 11.0326 69.7579 11.112C69.996 11.1913 70.2064 11.2985 70.389 11.4334C70.5795 11.5684 70.7303 11.739 70.8414 11.9454C70.9605 12.1518 71.02 12.4058 71.02 12.7074C71.02 13.0726 70.9366 13.3821 70.77 13.6361C70.6033 13.8901 70.385 14.0965 70.1151 14.2553C69.8532 14.414 69.5595 14.5291 69.234 14.6005C68.9086 14.672 68.5871 14.7077 68.2696 14.7077C67.8807 14.7077 67.5195 14.664 67.1861 14.5767C66.8607 14.4894 66.5749 14.3584 66.3288 14.1838C66.0907 14.0013 65.9002 13.779 65.7573 13.5171C65.6224 13.2472 65.551 12.9297 65.543 12.5645H66.9004ZM76.9798 14.541H75.6463V13.6837H75.6225C75.4558 13.9933 75.2058 14.2434 74.8724 14.4339C74.5469 14.6164 74.2136 14.7077 73.8722 14.7077C73.0626 14.7077 72.4752 14.5093 72.1101 14.1124C71.7529 13.7076 71.5743 13.1003 71.5743 12.2907V8.38537H72.9316V12.1597C72.9316 12.6995 73.0348 13.0805 73.2412 13.3027C73.4476 13.525 73.7373 13.6361 74.1104 13.6361C74.3961 13.6361 74.6343 13.5925 74.8248 13.5052C75.0153 13.4178 75.17 13.3027 75.2891 13.1599C75.4082 13.009 75.4915 12.8305 75.5392 12.6241C75.5947 12.4177 75.6225 12.1954 75.6225 11.9573V8.38537H76.9798V14.541ZM77.935 8.38537H79.2209V9.29026L79.2447 9.31408C79.451 8.97276 79.7209 8.70685 80.0543 8.51634C80.3877 8.3179 80.7568 8.21868 81.1616 8.21868C81.8363 8.21868 82.3681 8.39331 82.7571 8.74257C83.146 9.09182 83.3405 9.61571 83.3405 10.3142V14.541H81.9832V10.6714C81.9673 10.1872 81.8641 9.83796 81.6736 9.62364C81.4831 9.40139 81.1854 9.29026 80.7806 9.29026C80.5504 9.29026 80.344 9.33392 80.1615 9.42123C79.9789 9.50061 79.8241 9.61571 79.6971 9.76652C79.5701 9.9094 79.4709 10.0801 79.3995 10.2785C79.328 10.4769 79.2923 10.6873 79.2923 10.9095V14.541H77.935V8.38537ZM90.0941 14.541H88.8082V13.7076H88.7844C88.6018 14.0648 88.3359 14.3227 87.9866 14.4815C87.6374 14.6323 87.2683 14.7077 86.8793 14.7077C86.3951 14.7077 85.9705 14.6244 85.6053 14.4577C85.2481 14.283 84.9505 14.0489 84.7123 13.7552C84.4742 13.4615 84.2956 13.1162 84.1765 12.7193C84.0575 12.3145 83.998 11.8819 83.998 11.4215C83.998 10.8659 84.0734 10.3857 84.2242 9.98084C84.375 9.57602 84.5734 9.24264 84.8195 8.98069C85.0735 8.71875 85.3593 8.52825 85.6768 8.40918C86.0022 8.28218 86.3316 8.21868 86.665 8.21868C86.8555 8.21868 87.05 8.23852 87.2484 8.27821C87.4469 8.30996 87.6374 8.36553 87.8199 8.4449C88.0025 8.52428 88.1692 8.62747 88.32 8.75447C88.4788 8.87354 88.6097 9.01641 88.7129 9.1831H88.7367V6.0398H90.0941V14.541ZM85.3553 11.5287C85.3553 11.7906 85.387 12.0486 85.4505 12.3026C85.522 12.5566 85.6252 12.7828 85.7601 12.9813C85.903 13.1797 86.0816 13.3385 86.2959 13.4575C86.5102 13.5766 86.7642 13.6361 87.0579 13.6361C87.3595 13.6361 87.6175 13.5726 87.8318 13.4456C88.0541 13.3186 88.2327 13.1519 88.3676 12.9455C88.5105 12.7392 88.6137 12.509 88.6772 12.255C88.7486 11.993 88.7844 11.7271 88.7844 11.4572C88.7844 10.7746 88.6296 10.2428 88.32 9.86177C88.0184 9.48077 87.6056 9.29026 87.0817 9.29026C86.7642 9.29026 86.4943 9.35773 86.2721 9.49267C86.0578 9.61968 85.8792 9.79033 85.7363 10.0047C85.6014 10.211 85.5021 10.4492 85.4386 10.719C85.3831 10.981 85.3553 11.2509 85.3553 11.5287ZM96.2536 13.1718C96.2536 13.3385 96.2735 13.4575 96.3131 13.529C96.3608 13.6004 96.4481 13.6361 96.5751 13.6361C96.6148 13.6361 96.6624 13.6361 96.718 13.6361C96.7735 13.6361 96.837 13.6282 96.9085 13.6123V14.5529C96.8608 14.5688 96.7973 14.5847 96.718 14.6005C96.6465 14.6244 96.5711 14.6442 96.4917 14.6601C96.4124 14.676 96.333 14.6879 96.2536 14.6958C96.1742 14.7037 96.1068 14.7077 96.0512 14.7077C95.7734 14.7077 95.5432 14.6521 95.3606 14.541C95.1781 14.4299 95.059 14.2354 95.0034 13.9576C94.7336 14.2195 94.4002 14.41 94.0033 14.5291C93.6143 14.6482 93.2373 14.7077 92.8722 14.7077C92.5944 14.7077 92.3284 14.668 92.0744 14.5886C91.8204 14.5172 91.5942 14.41 91.3958 14.2672C91.2053 14.1164 91.0505 13.9298 90.9314 13.7076C90.8203 13.4774 90.7647 13.2115 90.7647 12.9098C90.7647 12.5288 90.8322 12.2193 90.9671 11.9811C91.11 11.743 91.2926 11.5565 91.5148 11.4215C91.745 11.2866 91.999 11.1913 92.2769 11.1358C92.5626 11.0723 92.8484 11.0246 93.1341 10.9929C93.3802 10.9453 93.6143 10.9135 93.8366 10.8976C94.0589 10.8738 94.2533 10.8381 94.42 10.7905C94.5946 10.7429 94.7296 10.6714 94.8248 10.5762C94.928 10.473 94.9796 10.3222 94.9796 10.1237C94.9796 9.94909 94.936 9.80621 94.8487 9.69508C94.7693 9.58396 94.6661 9.50061 94.5391 9.44505C94.42 9.38155 94.2851 9.34186 94.1343 9.32598C93.9834 9.30217 93.8406 9.29026 93.7056 9.29026C93.3246 9.29026 93.0111 9.36964 92.765 9.52839C92.519 9.68715 92.38 9.93321 92.3483 10.2666H90.991C91.0148 9.86971 91.11 9.5403 91.2767 9.27836C91.4434 9.01641 91.6537 8.80607 91.9078 8.64731C92.1697 8.48856 92.4634 8.37743 92.7888 8.31393C93.1143 8.25043 93.4477 8.21868 93.789 8.21868C94.0906 8.21868 94.3883 8.25043 94.682 8.31393C94.9757 8.37743 95.2376 8.48062 95.4678 8.6235C95.7059 8.76638 95.8964 8.95291 96.0393 9.1831C96.1822 9.40536 96.2536 9.67921 96.2536 10.0047V13.1718ZM94.8963 11.4572C94.6899 11.5922 94.4359 11.6755 94.1343 11.7073C93.8326 11.7311 93.531 11.7708 93.2294 11.8263C93.0865 11.8502 92.9476 11.8859 92.8126 11.9335C92.6777 11.9732 92.5586 12.0327 92.4555 12.1121C92.3523 12.1835 92.2689 12.2828 92.2054 12.4098C92.1499 12.5288 92.1221 12.6757 92.1221 12.8503C92.1221 13.0011 92.1657 13.1281 92.253 13.2313C92.3404 13.3345 92.4435 13.4178 92.5626 13.4813C92.6896 13.5369 92.8246 13.5766 92.9674 13.6004C93.1182 13.6242 93.2532 13.6361 93.3722 13.6361C93.5231 13.6361 93.6858 13.6163 93.8604 13.5766C94.035 13.5369 94.1978 13.4694 94.3486 13.3742C94.5073 13.2789 94.6383 13.1599 94.7415 13.017C94.8447 12.8662 94.8963 12.6836 94.8963 12.4693V11.4572ZM96.5592 8.38537H98.0475L99.6549 12.9813H99.6787L101.238 8.38537H102.655L100.262 14.8744C100.151 15.1522 100.04 15.4181 99.9287 15.6721C99.8255 15.9261 99.6946 16.1484 99.5358 16.3389C99.385 16.5373 99.1945 16.6921 98.9643 16.8032C98.7341 16.9223 98.4404 16.9818 98.0832 16.9818C97.7657 16.9818 97.4522 16.958 97.1426 16.9104V15.7674C97.2537 15.7833 97.3609 15.7991 97.4641 15.815C97.5673 15.8388 97.6744 15.8507 97.7855 15.8507C97.9443 15.8507 98.0753 15.8309 98.1785 15.7912C98.2817 15.7515 98.365 15.692 98.4285 15.6126C98.4999 15.5412 98.5595 15.4538 98.6071 15.3507C98.6547 15.2475 98.6984 15.1284 98.7381 14.9935L98.8929 14.5172L96.5592 8.38537Z" fill="url(#paint1_linear_349_2017)"/>
<path d="M108.238 6.0398H109.822L113.096 14.541H111.5L110.703 12.2907H107.309L106.512 14.541H104.976L108.238 6.0398ZM107.714 11.1596H110.31L109.036 7.50429H109L107.714 11.1596ZM113.429 6.0398H114.917V14.541H113.429V6.0398Z" fill="url(#paint2_linear_349_2017)"/>
<defs>
<filter id="filter0_f_349_2017" x="99.8892" y="0.000565052" width="20.8582" height="19.1786" filterUnits="userSpaceOnUse" color-interpolation-filters="sRGB">
<feFlood flood-opacity="0" result="BackgroundImageFix"/>
<feBlend mode="normal" in="SourceGraphic" in2="BackgroundImageFix" result="shape"/>
<feGaussianBlur stdDeviation="1.15757" result="effect1_foregroundBlur_349_2017"/>
</filter>
<linearGradient id="paint0_linear_349_2017" x1="113.33" y1="2.54883" x2="121.149" y2="5.53109" gradientUnits="userSpaceOnUse">
<stop stop-color="#EA01FF"/>
<stop offset="1" stop-color="#FFD716"/>
</linearGradient>
<linearGradient id="paint1_linear_349_2017" x1="90.5" y1="3.54102" x2="90.5" y2="15.541" gradientUnits="userSpaceOnUse">
<stop stop-color="white"/>
<stop offset="1" stop-color="white"/>
</linearGradient>
<linearGradient id="paint2_linear_349_2017" x1="100.018" y1="3.54102" x2="108.698" y2="18.695" gradientUnits="userSpaceOnUse">
<stop stop-color="#EA01FF"/>
<stop offset="1" stop-color="white"/>
</linearGradient>
</defs>
</svg>
